<svg id="a3e5e1d1-ac20-4c79-a176-2bcaf73c4539" data-name="Calque 1" xmlns="http://www.w3.org/2000/svg" xmlns:xlink="http://www.w3.org/1999/xlink" viewBox="0 0 23.6011 10.52346">
  <defs>
    <clipPath id="a9221931-c5fe-4501-951d-eb4c71cc1757" transform="translate(-1393.7784 -1030.41721)">
      <path id="ae2412ee-5335-4fea-aaf4-0cc04f82d3cb" data-name="SVGID" d="M1401.5492,1035.61832l.672.8052-2.0309,2.4555-2.042-2.4465.6685-.8081,1.3699,1.6412Zm-2.3291-.4814.9593-1.1597.9644,1.1555-.9593,1.1597Zm1.6335-1.3226c.0279-.0304.049-.0531.0541-.0578l.0084-.0076q.027-.0246.0521-.04551l.0037-.003c.0158-.0132.0311-.0252.0456-.0363l.0048-.0037c.0152-.0113.0295-.0215.0432-.03071l.0046-.003c.0133-.00871.026-.0167.0381-.0236l.0012-.0008c.0123-.0071.024-.0131.0351-.0184l.0043-.002a.34673.34673,0,0,1,.0582-.0218l.0035-.001a.20584.20584,0,0,1,.0446-.0064h.0025a.141.141,0,0,1,.0175.00069l.0009.00011.0145.00249.0016.00031.0122.0035.0018.0006.0095.0037.0002.0001.0092.0039.0064.0027a1.21678,1.21678,0,0,1,.3028.2871l.285.33769-.3721.44981Zm-3.5196.0336,1.0774,1.2907-1.0717,1.2956,2.8527,3.4178,2.8369-3.4303-1.077-1.29071.7751-.93719-.877-1.0517a.61072.61072,0,0,1-.0784-.1649.48337.48337,0,0,1,.081-.4235l.0504-.0616-.0771-.0925-.7897.9638-.2815.3328-.5778-.6924-1.3627,1.6474-.672-.8051,2.0022-2.4202.7257.8696.0979-.1186-.1169-.13991a1.27876,1.27876,0,0,1-.3643-.75939.70092.70092,0,0,1,.1194-.339l-.435-.52141Z" style="fill: none"/>
    </clipPath>
    <linearGradient id="ecae74fc-4402-4f0b-8f0f-0a15ec473d96" data-name="Dégradé sans nom 4" x1="1000.16021" y1="1711.78412" x2="1000.26021" y2="1711.78412" gradientTransform="matrix(0, -93.50269, -93.50269, 0, 160062.81591, 93527.00924)" gradientUnits="userSpaceOnUse">
      <stop offset="0" stop-color="#bce3f9"/>
      <stop offset="1" stop-color="#9c9b9b"/>
    </linearGradient>
    <clipPath id="edb2b481-7891-4d8e-9362-dc5ff039139b" transform="translate(-1393.7784 -1030.41721)">
      <path id="eca790ae-f4d5-4e3f-9c61-481b3d5fcde6" data-name="SVGID" d="M1399.0354,1034.28441c.0448-.24409.1169-.363.2094-.363.0996,0,.1649.1442.1992.4256a6.32641,6.32641,0,0,1,.031.71369h-.4946a4.34939,4.34939,0,0,1,.055-.7763m-.2884-.05639a3.00271,3.00271,0,0,0-.1888,1.1455,3.44716,3.44716,0,0,0,.158,1.1515c.1166.3319.2883.4946.5116.4946a.4588.4588,0,0,0,.3913-.2628,2.45791,2.45791,0,0,0,.2473-.657l-.0343-.0564a1.59814,1.59814,0,0,1-.1512.3566.26549.26549,0,0,1-.2165.1568q-.2262,0-.3603-.4508a3.04543,3.04543,0,0,1-.1102-.85781h.8761a3.21787,3.21787,0,0,0-.1481-1.03279c-.1097-.3193-.2539-.4819-.4292-.4819-.2296,0-.4118.1626-.5457.4945" style="fill: none"/>
    </clipPath>
    <linearGradient id="e7c1a566-ec1a-4953-861a-2cb8d85d1724" data-name="Dégradé sans nom 21" x1="993.86921" y1="1723.68502" x2="993.96921" y2="1723.68502" gradientTransform="matrix(0, 35.62471, 35.62471, 0, -61400.35004, -35403.05478)" gradientUnits="userSpaceOnUse">
      <stop offset="0" stop-color="#43348a"/>
      <stop offset="1" stop-color="#0069b3"/>
    </linearGradient>
    <clipPath id="a047d815-fa1d-4ffc-94ca-1afcaaaa1a20" transform="translate(-1393.7784 -1030.41721)">
      <path id="a3b51d5f-f896-47a9-bb23-9c7cc979ec11" data-name="SVGID" d="M1397.9781,1032.63392a4.43276,4.43276,0,0,1-.6321,1.4125v.0751h.2097v2.1471a1.03077,1.03077,0,0,0,.1132.4693c.0718.1567.1683.2319.2815.2319a.3313.3313,0,0,0,.2678-.1691,1.124,1.124,0,0,0,.1751-.4382l-.0308-.044a1.13873,1.13873,0,0,1-.0893.2129c-.0413.069-.0824.1065-.1203.1065q-.0927,0-.1234-.1878a3.78854,3.78854,0,0,1-.0173-.4508v-1.8778h.212l.2414-.2816h-.4534v-1.206Z" style="fill: none"/>
    </clipPath>
    <linearGradient id="f708858b-db36-4760-bca7-8005ca8c51e3" x1="995.0837" y1="1721.83302" x2="995.1837" y2="1721.83302" gradientTransform="matrix(0, 47.00344, 47.00344, 0, -80927.94909, -46770.22637)" xlink:href="#e7c1a566-ec1a-4953-861a-2cb8d85d1724"/>
    <clipPath id="be02d221-ae94-44bc-b5bd-689c66bbc847" transform="translate(-1393.7784 -1030.41721)">
      <path id="b2c5dca5-836c-4d29-a544-f0c4000f92f3" data-name="SVGID" d="M1396.1438,1036.39392a.58221.58221,0,0,1-.0549-.2753,1.14971,1.14971,0,0,1,.1375-.5259,1.53611,1.53611,0,0,1,.2677-.39451l-.0033,1.10161a.68335.68335,0,0,1-.1166.1627.12061.12061,0,0,1-.0859.044c-.0585,0-.1065-.0378-.1445-.1126m-.2095-2.4476a.91484.91484,0,0,0-.2504.6759.54167.54167,0,0,0,.072.2943.201.201,0,0,0,.1645.1126.17606.17606,0,0,0,.155-.0999.54975.54975,0,0,0,.0616-.282.62357.62357,0,0,0-.0582-.2439.62466.62466,0,0,1-.0549-.1941.23875.23875,0,0,1,.0789-.1941.25235.25235,0,0,1,.1615-.0688.18017.18017,0,0,1,.1509.094.66744.66744,0,0,1,.0789.35659v.57591a3.95064,3.95064,0,0,0-.6661.7323,1.29217,1.29217,0,0,0-.1751.6949.9871.9871,0,0,0,.0858.4508c.0584.1126.1306.1688.22.1688a.4131.4131,0,0,0,.2812-.1627,1.97677,1.97677,0,0,0,.2542-.3755.80119.80119,0,0,0,.0894.4196.233.233,0,0,0,.2094.1186.24722.24722,0,0,0,.206-.1125,1.15408,1.15408,0,0,0,.1579-.3318l-.0308-.0439a.51472.51472,0,0,1-.048.0876.04969.04969,0,0,1-.0481.0253c-.0343,0-.0584-.0253-.0689-.0752a1.74941,1.74941,0,0,1-.0137-.2693v-1.5272a1.69752,1.69752,0,0,0-.1407-.7761.45828.45828,0,0,0-.4324-.263.61589.61589,0,0,0-.4399.2128" style="fill: none"/>
    </clipPath>
    <linearGradient id="b3437feb-972a-4a0b-b234-89327031b37d" x1="993.86921" y1="1724.39472" x2="993.96921" y2="1724.39472" gradientTransform="matrix(0, 35.62471, 35.62471, 0, -61428.44216, -35403.05478)" xlink:href="#e7c1a566-ec1a-4953-861a-2cb8d85d1724"/>
    <clipPath id="e9da7c64-fb3d-45d0-9e7e-586d57dfe45e" transform="translate(-1393.7784 -1030.41721)">
      <path id="b9dc788a-a5b6-43ab-9928-f2f3c27f90c8" data-name="SVGID" d="M1393.7784,1032.43792v.06889a.29138.29138,0,0,1,.3193.27561,4.62859,4.62859,0,0,1,.0139.5004v2.7917a2.66822,2.66822,0,0,1-.0413.6196.269.269,0,0,1-.2885.1628l-.0034.0752h1.1778v-.0752a.29136.29136,0,0,1-.3161-.2816,4.419,4.419,0,0,1-.0169-.5008l.0067-1.3331a.45942.45942,0,0,1,.4605.2816,2.66952,2.66952,0,0,1,.127.795h.0376v-2.23469h-.0376a2.40615,2.40615,0,0,1-.1239.7135.47848.47848,0,0,1-.4669.2631l.0033-1.9342.2268-.00641a.68169.68169,0,0,1,.5355.16311,1.803,1.803,0,0,1,.268.9198l.0375.0065v-1.2708Z" style="fill: none"/>
    </clipPath>
    <linearGradient id="faa4a553-f472-46d0-aaf6-41845b4d6258" x1="995.22322" y1="1722.17751" x2="995.32322" y2="1722.17751" gradientTransform="matrix(0, 48.71964, 48.71964, 0, -83902.89994, -48484.97959)" xlink:href="#e7c1a566-ec1a-4953-861a-2cb8d85d1724"/>
    <clipPath id="a3cde1a6-66f3-4e8f-a3f7-55af26ab5e37" transform="translate(-1393.7784 -1030.41721)">
      <path id="bdf6e02c-96a2-48b4-8ea5-a54651fa485b" data-name="SVGID" d="M1404.8344,1036.21172a.183.183,0,0,1,.0683-.1521l.0061-.0057a.99331.99331,0,0,1,.3451-.17l.0007.0009c0,.1263-.0072.3546-.0173.4112a.15386.15386,0,0,1-.0398.0808.243.243,0,0,1-.1618.0548.22933.22933,0,0,1-.2013-.2199m.1223-.9071a.96849.96849,0,0,0-.267.2078.20585.20585,0,0,0-.0549.1064.01928.01928,0,0,0,.0093.0153l.01.0021a.46622.46622,0,0,0,.1058-.0357c.0257-.0103.0502-.02.0632-.024a.04225.04225,0,0,0,.0248-.0425.08789.08789,0,0,1,.0032-.0325.14864.14864,0,0,1,.0555-.08351.21233.21233,0,0,1,.1361-.0461.269.269,0,0,1,.1388.05221.23425.23425,0,0,1,.0795.1916.71462.71462,0,0,1-.004.0845l-.0023.026a.071.071,0,0,1-.0382.0388c-.0643.0216-.3874.1701-.4674.2169a.33678.33678,0,0,0,.156.6013.51136.51136,0,0,0,.3459-.1549.2379.2379,0,0,0,.2047.1586.29857.29857,0,0,0,.2546-.146c.0102-.0185.0144-.0297.0087-.0393a.01918.01918,0,0,0-.015-.0085c-.0071,0-.0143.0037-.0271.0139-.0652.0501-.0728.0549-.1343.0579l-.0143.0004c-.0715,0-.0745-.0317-.0745-.1035,0-.0422.0031-.1559.0065-.2765.0038-.1346.0075-.2736.0075-.33191a1.37658,1.37658,0,0,0-.0319-.30869.29174.29174,0,0,0-.2763-.2002.43732.43732,0,0,0-.2029.0601" style="fill: none"/>
    </clipPath>
    <linearGradient id="eb9d16d6-147e-4e6c-932f-136517d6804c" x1="991.99843" y1="1725.11153" x2="992.09843" y2="1725.11153" gradientTransform="matrix(0, 25.29824, 25.29824, 0, -43630.89057, -25092.04258)" xlink:href="#e7c1a566-ec1a-4953-861a-2cb8d85d1724"/>
    <clipPath id="ac86d645-acde-4da2-bb5a-1fe827234c60" transform="translate(-1393.7784 -1030.41721)">
      <path id="b23d5cf6-d25e-4d2e-ba7f-aa2d39c7614d" data-name="SVGID" d="M1406.1546,1035.25032a1.20631,1.20631,0,0,1-.2276.1023.46211.46211,0,0,1-.057.0151c-.0349.0076-.0494.0109-.0494.0268,0,.0299.0715.0542.0831.05629a.29971.29971,0,0,0,.0425.00421c.0357.0016.0433.002.0433.0913,0,.2613,0,.5865-.0071.8549-.0032.0649-.0173.0982-.0876.1131a.17975.17975,0,0,1-.0391.004l-.0192-.0004c-.0246,0-.0298.0121-.0298.0225,0,.0184.0135.0408.078.0408h.4232l.0182.0004.0168.0005c.0121,0,.0493,0,.0493-.0316a.02208.02208,0,0,0-.024-.024l-.0085.0005a.12645.12645,0,0,1-.038-.0025.12853.12853,0,0,1-.1017-.1175l-.0017-.0109a2.33376,2.33376,0,0,1-.019-.3221c-.003-.1959-.0033-.36671-.0033-.4312a.18777.18777,0,0,1,.0358-.1052.4536.4536,0,0,1,.2964-.1276.31049.31049,0,0,1,.2001.0689c.0763.0613.108.13439.108.4298v.4521c0,.1119-.0166.1463-.0772.16a.31556.31556,0,0,1-.051.0055c-.0157.0007-.0369.0017-.0369.0242,0,.0307.0424.0307.0705.0307h.3889l.0313.0006c.0122,0,.0494,0,.0494-.0347,0-.0057-.0024-.0193-.0273-.0193h-.0042a.10727.10727,0,0,1-.0384-.0069c-.0795-.0205-.0881-.0479-.0917-.2946,0-.0802-.0008-.1274-.0018-.1755-.0008-.0494-.0019-.0996-.0019-.1873a.75123.75123,0,0,0-.1067-.4685.35084.35084,0,0,0-.2771-.1268.47281.47281,0,0,0-.2123.0426,1.29337,1.29337,0,0,0-.2542.1603,1.64848,1.64848,0,0,1,.007-.17761.043.043,0,0,0-.0093-.0354.03287.03287,0,0,0-.0246-.01179.02693.02693,0,0,0-.0142.004" style="fill: none"/>
    </clipPath>
    <linearGradient id="a506e333-a00c-43b6-a2d7-8a4a00d3dc60" x1="991.99843" y1="1724.63492" x2="992.09843" y2="1724.63492" gradientTransform="matrix(0, 25.29824, 25.29824, 0, -43617.49541, -25092.04258)" xlink:href="#e7c1a566-ec1a-4953-861a-2cb8d85d1724"/>
    <clipPath id="ae755500-c082-4cc5-a0dd-9383e04b80e3" transform="translate(-1393.7784 -1030.41721)">
      <path id="a33539ee-f0bf-42aa-a5f5-1b55310d1adb" data-name="SVGID" d="M1407.6076,1035.90692a.61491.61491,0,0,1,.1994-.4973.29071.29071,0,0,1,.1843-.0564.39353.39353,0,0,1,.3117.15359.16011.16011,0,0,1,.0279.06821,4.94914,4.94914,0,0,1,.0031.6385.22778.22778,0,0,1-.0366.138.37567.37567,0,0,1-.2644.1028c-.2115,0-.4254-.188-.4254-.5474m.89-1.7599c-.0245.01239-.2245.0435-.3438.0622l-.0993.0157c-.0376.0077-.0433.0258-.0433.036,0,.0133,0,.0251.1236.0383.0301.0034.0589.0059.085.00809a.32721.32721,0,0,1,.1164.01921.08324.08324,0,0,1,.0117.0505c0,.11729.0013.4211.0024.6473.0005.134.0011.2409.0011.2648l-.0002.0008a1.01574,1.01574,0,0,0-.2393-.0367.78519.78519,0,0,0-.4534.1448.70649.70649,0,0,0-.2884.5746.66.66,0,0,0,.1807.4638.57711.57711,0,0,0,.3889.1525.626.626,0,0,0,.3914-.1646.68387.68387,0,0,1-.004.0901l-.0033.0416c0,.0172.0148.0346.0431.0346h.1767c.0304,0,.1583-.0096.2839-.0224.2502-.0257.2502-.0367.2502-.0535,0-.0084-.0009-.0383-.0524-.029l-.027.0017a.9176.9176,0,0,1-.4371-.109c0-.0334-.0008-.0769-.002-.1332-.0019-.1023-.0047-.2427-.0047-.438,0-.2622.0174-1.498.0237-1.6037.0039-.0486-.0043-.0637-.0109-.0706a.02277.02277,0,0,0-.0177-.0078.11821.11821,0,0,0-.052.0219" style="fill: none"/>
    </clipPath>
    <linearGradient id="e4555865-83d5-4134-8f7c-1513b16d4e33" x1="991.99843" y1="1724.02485" x2="992.09843" y2="1724.02485" gradientTransform="matrix(0, 25.29824, 25.29824, 0, -43600.34685, -25092.04258)" xlink:href="#e7c1a566-ec1a-4953-861a-2cb8d85d1724"/>
    <clipPath id="a48195b2-cf29-4fa5-8375-3da4d51656ee" transform="translate(-1393.7784 -1030.41721)">
      <path id="b51bd56d-ddf0-4be8-84fa-7c147d148282" data-name="SVGID" d="M1407.977,1035.713a.79631.79631,0,0,1-.0938.1839.01546.01546,0,0,0-.0093.0142.01571.01571,0,0,0,.0093.0143.797.797,0,0,1,.0938.1843.01545.01545,0,1,0,.0309,0,.78479.78479,0,0,1,.094-.1842.01562.01562,0,0,0,.0094-.0144.01532.01532,0,0,0-.0095-.0143.78765.78765,0,0,1-.0939-.1838v-.0006a.01541.01541,0,0,0-.0154-.0151.01562.01562,0,0,0-.0155.0157" style="fill: none"/>
    </clipPath>
    <linearGradient id="bc6823de-2692-4413-b41f-c0d259fba302" x1="991.99843" y1="1724.10713" x2="992.09843" y2="1724.10713" gradientTransform="matrix(0, 25.29824, 25.29824, 0, -43602.65962, -25092.04258)" xlink:href="#e7c1a566-ec1a-4953-861a-2cb8d85d1724"/>
    <clipPath id="ef7e7aba-d1bb-460b-82b0-537c6188e03e" transform="translate(-1393.7784 -1030.41721)">
      <path id="b7a0bbe9-f63b-4f84-851a-97750ffe37ca" data-name="SVGID" d="M1401.3485,1034.39431a1.12593,1.12593,0,0,0-.4819.72811.41559.41559,0,0,1-.3852.248c-.0013,0-.1245.0031-.1245.0444,0,.0406.1232.0447.1245.0447a.48765.48765,0,0,1,.3906.239,1.14414,1.14414,0,0,0,.3293.5813,1.47674,1.47674,0,0,0,1.0048.3281,1.49934,1.49934,0,0,0,.6487-.1382c.0453-.0263.0469-.0421.0469-.1773v-.3392c0-.1268,0-.2845.0059-.3814.0039-.0652.1323-.0743.2564-.0826.0444-.0032.0903-.0062.1305-.01211.1133-.015.1133-.03839.1133-.046,0-.03031-.0283-.03031-.039-.03031l-.951.00031-.0249-.00031c-.0108,0-.0388,0-.0388.03031,0,.0192.0215.0261.1077.0428l.0305.0064c.109.0298.1247.05019.1247.297v.5151a.09529.09529,0,0,1-.0526.0926.81344.81344,0,0,1-.3371.0616,1.084,1.084,0,0,1-.7812-.3199,1.22973,1.22973,0,0,1-.316-.8284.96357.96357,0,0,1,.2936-.75741.95058.95058,0,0,1,.6372-.19669.86354.86354,0,0,1,.6974.23809.5164.5164,0,0,1,.0642.17751l.0038.0181c.0062.0261.011.052.0154.0775a.795.795,0,0,0,.0295.1241.01874.01874,0,0,0,.0157.0119c.0278,0,.0278-.1305.0278-.2353v-.4302c0-.019-.0054-.03891-.046-.04281a1.47864,1.47864,0,0,1-.2424-.03039,2.61147,2.61147,0,0,0-.4655-.05191,1.50052,1.50052,0,0,0-.8123.1935" style="fill: none"/>
    </clipPath>
    <linearGradient id="e8b6e2b3-bae9-4099-a02b-2c13740de87d" x1="991.99843" y1="1726.28091" x2="992.09843" y2="1726.28091" gradientTransform="matrix(0, 25.29824, 25.29824, 0, -43663.76279, -25092.04258)" xlink:href="#e7c1a566-ec1a-4953-861a-2cb8d85d1724"/>
    <clipPath id="ee67b2f8-61c5-4c21-8dc3-a0eee395fe7b" transform="translate(-1393.7784 -1030.41721)">
      <path id="bf8aa788-cea4-43ee-a20d-52e0e387296b" data-name="SVGID" d="M1403.7651,1035.30022a1.05348,1.05348,0,0,1-.1875.0679c-.0165.0045-.0563.0101-.0915.0152-.0866.012-.0957.0131-.0957.0305,0,.0175.0073.0181.0937.0277a.81076.81076,0,0,1,.093.0128c.0142.0047.0261.0074.0358.0099.0303.0072.031.0072.031.0704v.3603c0,.2417-.004.4262-.0103.481a.14863.14863,0,0,1-.1164.1422.61825.61825,0,0,1-.0661.007c-.086.007-.1042.0092-.1042.029,0,.0164,0,.0304.1783.0304h.5024c.0078,0,.1859-.0005.1859-.0444,0-.0261-.0356-.0272-.1003-.0294-.0228-.0007-.0464-.0014-.0635-.0038-.1287-.0098-.1695-.0422-.182-.1442-.0066-.0658-.014-.2564-.014-.5196,0-.0724,0-.1545.0035-.1852.0023-.029.0118-.0385.0375-.064l.0265-.0271a.43345.43345,0,0,1,.2365-.0737.35455.35455,0,0,1,.1168.0216.51449.51449,0,0,1,.062.0269.05378.05378,0,0,0,.0235.0086.08773.08773,0,0,0,.0643-.0311.179.179,0,0,0,.0677-.1053.0779.0779,0,0,0-.0185-.0529.2093.2093,0,0,0-.1343-.0522.86084.86084,0,0,0-.4919.2398c.0004-.02921.0009-.073.0017-.1129l.0013-.08741c0-.02179,0-.06729-.0292-.06729a.12646.12646,0,0,0-.056.0193" style="fill: none"/>
    </clipPath>
    <linearGradient id="b4ca25df-439b-4efa-864d-b05d8594493a" x1="991.99843" y1="1725.55618" x2="992.09843" y2="1725.55618" gradientTransform="matrix(0, 25.29824, 25.29824, 0, -43643.39113, -25092.04258)" xlink:href="#e7c1a566-ec1a-4953-861a-2cb8d85d1724"/>
    <clipPath id="e6eaaeac-32d0-4646-9299-036cac551584" transform="translate(-1393.7784 -1030.41721)">
      <path id="b2bcec84-ad69-4298-9d4c-15f57f412ec9" data-name="SVGID" d="M1412.6252,1035.30952a1.01933,1.01933,0,0,1-.1874.0679c-.0165.00489-.0563.0103-.0918.0153-.0863.0121-.0954.0132-.0954.03049,0,.01761.0072.01831.0937.02771a.843.843,0,0,1,.0929.0129c.0142.00469.0262.0074.0358.0098.0304.0071.0311.0072.0311.0706v.3603c0,.2418-.0041.4262-.0102.4808a.14884.14884,0,0,1-.1165.1422.59214.59214,0,0,1-.0662.007c-.0861.0071-.1042.0093-.1042.029,0,.0164,0,.0304.1784.0304h.5024c.0075,0,.1858-.0004.1858-.0441,0-.0262-.0355-.0274-.1002-.0295a.63252.63252,0,0,1-.0637-.0039c-.1286-.0097-.1694-.0422-.1819-.1443-.0066-.0657-.0138-.2562-.0138-.5194,0-.0724,0-.1546.0034-.1853.0021-.02911.0119-.0385.0374-.0639l.0265-.0272a.43364.43364,0,0,1,.2364-.0737.34987.34987,0,0,1,.117.0217.474.474,0,0,1,.062.0268.05329.05329,0,0,0,.0232.0086.08786.08786,0,0,0,.0647-.0312.17914.17914,0,0,0,.0677-.10531.078.078,0,0,0-.0185-.05269.20976.20976,0,0,0-.1345-.0522.85979.85979,0,0,0-.4918.2397c.0002-.0292.001-.0731.0016-.1127l.0014-.0875c0-.0219,0-.0673-.0292-.0673a.1286.1286,0,0,0-.0561.019" style="fill: none"/>
    </clipPath>
    <linearGradient id="a5a47113-ce19-43aa-a03f-ea8d270c53ef" x1="991.99843" y1="1722.40411" x2="992.09843" y2="1722.40411" gradientTransform="matrix(0, 25.29824, 25.29824, 0, -43554.78917, -25092.04258)" xlink:href="#e7c1a566-ec1a-4953-861a-2cb8d85d1724"/>
    <clipPath id="f4adaee7-a004-4c5b-9106-986e0f7f7a9b" transform="translate(-1393.7784 -1030.41721)">
      <path id="e98b96e8-f7e5-4f4f-ac3e-d40513b74e18" data-name="SVGID" d="M1416.6525,1035.30952a1.0265,1.0265,0,0,1-.1873.0679c-.0168.00489-.0566.0103-.0917.0153-.0866.0121-.0956.0132-.0956.03049,0,.01761.007.01831.0935.02771a.85592.85592,0,0,1,.0931.0129c.0143.00469.0261.0074.0359.0098.0301.0071.0308.0072.0308.0706v.3603c0,.2418-.0037.4262-.0101.4808a.14873.14873,0,0,1-.1165.1422.59246.59246,0,0,1-.0661.007c-.0861.0071-.1043.0093-.1043.029,0,.0164,0,.0304.1784.0304h.5023c.0077,0,.1859-.0004.1859-.0441,0-.0262-.0355-.0274-.1002-.0295a.62849.62849,0,0,1-.0636-.0039c-.1288-.0097-.1695-.0422-.182-.1443-.0066-.0657-.0139-.2562-.0139-.5194,0-.0724,0-.1546.0035-.1853.0022-.02911.0118-.0385.0375-.0639l.0264-.0272a.43371.43371,0,0,1,.2365-.0737.35032.35032,0,0,1,.117.0217.48987.48987,0,0,1,.0621.0268.05246.05246,0,0,0,.0232.0086.088.088,0,0,0,.0645-.0312.17914.17914,0,0,0,.0677-.10531.07745.07745,0,0,0-.0185-.05269.20956.20956,0,0,0-.1345-.0522.85976.85976,0,0,0-.4919.2397l.0017-.1127.0013-.0875c0-.0219,0-.0673-.0292-.0673a.12764.12764,0,0,0-.0559.019" style="fill: none"/>
    </clipPath>
    <linearGradient id="aeafa4a1-b065-415f-b872-c5c574041a82" x1="986.5699" y1="1725.69022" x2="986.6699" y2="1725.69022" gradientTransform="matrix(0, 14.13127, 14.13127, 0, -24363.16994, -13936.64037)" xlink:href="#e7c1a566-ec1a-4953-861a-2cb8d85d1724"/>
    <clipPath id="be5925b4-16fe-4d8a-bc97-8f1f91b1e20f" transform="translate(-1393.7784 -1030.41721)">
      <path id="a78d21b4-bd9f-4be5-96a2-b589e26bb565" data-name="SVGID" d="M1415.3206,1035.46352a.39843.39843,0,0,1,.2646-.1305.2656.2656,0,0,1,.1817.0647.19093.19093,0,0,1,.0439.127c0,.0219,0,.0468-.0604.0468l-.4937.0032a.26626.26626,0,0,1,.0639-.1112m-.1495-.0254a.75858.75858,0,0,0-.1899.5046.67626.67626,0,0,0,.1692.4727.55772.55772,0,0,0,.4106.1807.6115.6115,0,0,0,.4793-.2044.56281.56281,0,0,0,.0997-.1524.01725.01725,0,0,0,0-.0165.01593.01593,0,0,0-.0134-.0077c-.0083,0-.0094.0009-.053.0452-.0207.021-.0441.0447-.0584.0574a.43428.43428,0,0,1-.3201.1096.46176.46176,0,0,1-.3497-.1434.61655.61655,0,0,1-.1578-.4108.43.43,0,0,1,.0284-.1982.25824.25824,0,0,1,.0212-.024h.2104c.0454,0,.2455.004.3916.007.0858.0017.1537.0031.1628.0031a.0511.0511,0,0,0,.0461-.0469c0-.2352-.251-.3603-.4322-.3603a.66084.66084,0,0,0-.4448.1843" style="fill: none"/>
    </clipPath>
    <linearGradient id="be4ce49c-9e03-4b01-aba6-4b7554cc0b7c" x1="986.92437" y1="1726.15049" x2="987.02437" y2="1726.15049" gradientTransform="matrix(0, 14.55307, 14.55307, 0, -25099.00205, -14357.96762)" xlink:href="#e7c1a566-ec1a-4953-861a-2cb8d85d1724"/>
    <clipPath id="b2bdfcbd-b26b-4e64-8f8b-f8323f90c12d" transform="translate(-1393.7784 -1030.41721)">
      <path id="fa93363a-886b-4c8d-9005-4548ee27ef5f" data-name="SVGID" d="M1409.7373,1035.32312a.86211.86211,0,0,1,.8672-.9817c.435,0,.9034.3449.9034,1.1026,0,.9746-.6819,1.024-.8186,1.024a1.01521,1.01521,0,0,1-.952-1.1449m-.2893-.1636a.33315.33315,0,0,1-.314.2235c-.0009,0-.1002.0021-.1002.0381,0,.03619.0993.0378.1002.0378a.36988.36988,0,0,1,.315.2264,1.12441,1.12441,0,0,0,1.1586.9292,1.17387,1.17387,0,0,0,1.1102-.713l.003-.0052.0014-.0055a1.28451,1.28451,0,0,0,.0595-.1684.37919.37919,0,0,1,.3326-.2631c.001,0,.1001-.0016.1001-.0382,0-.0362-.0991-.0378-.1001-.0378a.31583.31583,0,0,1-.2964-.1931,1.11529,1.11529,0,0,0-1.1921-.9828,1.17322,1.17322,0,0,0-1.1778.9521" style="fill: none"/>
    </clipPath>
    <linearGradient id="add04639-33ab-498d-80d3-b59206054d75" x1="996.17378" y1="1717.87061" x2="996.27378" y2="1717.87061" gradientTransform="matrix(0, 72.00972, 72.00972, 0, -123686.5354, -71732.6822)" xlink:href="#e7c1a566-ec1a-4953-861a-2cb8d85d1724"/>
    <clipPath id="f0b5b821-781d-4796-961c-b147ea4699f0" transform="translate(-1393.7784 -1030.41721)">
      <path id="fcc15b77-184c-4d34-9ba4-5bec61597344" data-name="SVGID" d="M1410.6088,1035.00352a1.5458,1.5458,0,0,1-.2002.3922.01535.01535,0,0,0-.0116.0149.01569.01569,0,0,0,.0116.0151,1.54947,1.54947,0,0,1,.2002.3925.01537.01537,0,0,0,.0155.0154.01558.01558,0,0,0,.0156-.0154,1.53451,1.53451,0,0,1,.2002-.3925.0156.0156,0,0,0,.0115-.0151.01541.01541,0,0,0-.0115-.015,1.53506,1.53506,0,0,1-.2002-.39209.01573.01573,0,0,0-.0156-.0155.01551.01551,0,0,0-.0155.0155" style="fill: none"/>
    </clipPath>
    <linearGradient id="b63ead43-4eba-44cc-baf1-b7b6f1aff40b" x1="991.99836" y1="1723.17098" x2="992.09836" y2="1723.17098" gradientTransform="matrix(0, 25.29797, 25.29797, 0, -43575.8815, -25091.77406)" xlink:href="#e7c1a566-ec1a-4953-861a-2cb8d85d1724"/>
    <clipPath id="bb94e100-9945-4992-86e1-26d9b2492e67" transform="translate(-1393.7784 -1030.41721)">
      <path id="be9acb69-4b50-4eb1-8f4b-0c27e7a46b37" data-name="SVGID" d="M1413.6244,1035.90732a.61473.61473,0,0,1,.1993-.4977.29151.29151,0,0,1,.1846-.05621.39227.39227,0,0,1,.3114.15331.16782.16782,0,0,1,.0279.0684,5.02458,5.02458,0,0,1,.0032.6386.22846.22846,0,0,1-.0365.1379.37579.37579,0,0,1-.2646.1028c-.2114,0-.4253-.1879-.4253-.5471m.8897-1.7603c-.0248.0125-.2282.0444-.3501.0634l-.0928.0148c-.0273.0055-.0431.0187-.0431.0358,0,.0181.0153.0253.1162.0375l.007.0009c.0304.0035.0592.0058.0856.008a.327.327,0,0,1,.1161.0191.08262.08262,0,0,1,.0117.0509c0,.117.0012.4201.002.6462.0007.1344.0011.2413.0011.2657l-.0001.0004a1.02584,1.02584,0,0,0-.2388-.03631.78644.78644,0,0,0-.4536.14461.70622.70622,0,0,0-.2884.5747.66108.66108,0,0,0,.1807.464.57827.57827,0,0,0,.3891.1521.62847.62847,0,0,0,.3913-.1642.68368.68368,0,0,1-.0044.0909l-.0033.0406c0,.017.0147.0344.043.0344h.1776c.0301,0,.1579-.0095.2836-.0223.2501-.0256.2501-.036.2501-.0532a.03045.03045,0,0,0-.0347-.0312l-.0178.0018a.16263.16263,0,0,1-.0275.0018,1.37114,1.37114,0,0,1-.2686-.0396c-.1373-.0333-.1681-.0618-.1681-.069,0-.0335-.0009-.077-.002-.1332-.0018-.1026-.0045-.2431-.0045-.43831,0-.26659.0174-1.50359.0239-1.60379.0037-.0484-.0044-.0636-.011-.0706a.02241.02241,0,0,0-.0175-.0075.12425.12425,0,0,0-.0527.0216" style="fill: none"/>
    </clipPath>
    <linearGradient id="f8c0762c-e9ff-4412-8d00-9553fcdf1942" x1="997.49989" y1="1716.19422" x2="997.59989" y2="1716.19422" gradientTransform="matrix(0, 145.83667, 145.83667, 0, -250263.58792, -145477.05741)" xlink:href="#e7c1a566-ec1a-4953-861a-2cb8d85d1724"/>
    <clipPath id="edac9c4b-a394-4183-a669-4d78779cfceb" transform="translate(-1393.7784 -1030.41721)">
      <path id="bcd65dce-e419-4d92-8d9e-8d77c23e414b" data-name="SVGID" d="M1413.9938,1035.71312a.80713.80713,0,0,1-.0935.1839.01557.01557,0,0,0,0,.0285.80511.80511,0,0,1,.0935.1842.0155.0155,0,0,0,.031,0,.80036.80036,0,0,1,.0938-.1842.01557.01557,0,0,0,0-.0285.80842.80842,0,0,1-.0938-.1839v-.0004a.0155.0155,0,0,0-.031.0004" style="fill: none"/>
    </clipPath>
    <linearGradient id="ba2e2b8b-3391-431d-80a6-a75353831f68" x1="991.99851" y1="1721.96655" x2="992.09851" y2="1721.96655" gradientTransform="matrix(0, 25.29853, 25.29853, 0, -43542.9923, -25092.33407)" xlink:href="#e7c1a566-ec1a-4953-861a-2cb8d85d1724"/>
  </defs>
  <g>
    <g>
      <path d="M1404.55459,1034.78311a.02111.02111,0,0,1-.0185-.0118c-.0076-.0183-.0118-.0203-.0637-.0318l-.0084-.0019-.0034-.0159c0-.0103.0053-.0208.0155-.0208a.68448.68448,0,0,0,.0705.0067c.0152,0,.0226-.0076.0226-.0233v-.4128a.81127.81127,0,0,0-.0051-.0955l-.0024-.0127h.0129c.0034,0,.0853.0004.0853.0301,0,.0099-.0079.0179-.0235.0238-.0006.0316-.0012.0922-.0012.1585l.0007.2431c0,.0152.002.0589.0027.0702a.09092.09092,0,0,1-.084.0941m-.2958-.004a.0192.0192,0,0,1-.0188-.014c-.0036-.0126-.0168-.0176-.045-.0243l-.0082-.002-.0027-.0131.0001-.0023a.41668.41668,0,0,1-.072.023.02031.02031,0,0,1-.018-.0201c0-.0088.0065-.0118.0148-.0157a.4333.4333,0,0,0,.1682-.1097.44376.44376,0,0,1-.145.0633.01856.01856,0,0,1-.0167-.0193v-.0047l.0056-.0065.008-.0046a.36434.36434,0,0,0,.1254-.0806.42892.42892,0,0,1-.1116.043.01775.01775,0,0,1-.0138-.0081.42491.42491,0,0,1-.077.1828l-.0032.0042-.0093.0021a.02046.02046,0,0,1-.02-.0188v-.0046l.0041-.0058a.64141.64141,0,0,0,.0531-.3128v-.0194a1.27434,1.27434,0,0,0-.0078-.1482l-.0022-.016.0157.0043a.274.274,0,0,1,.0592.0252l.0604-.0013v-.0383a.441.441,0,0,0-.0032-.0652l-.0018-.0123h.0124c.0534,0,.0773.0083.0773.0267a.02681.02681,0,0,1-.02.0234l-.0002.0054h.0475a.07859.07859,0,0,1,.0197-.0316l.0032-.0032.009-.0026c.0118,0,.0647.0334.0647.0554,0,.0096-.0072.0194-.0234.0194h-.1215l-.0003.0227h.1046c.0079-.0143.0163-.0221.0246-.0221.0118,0,.058.0344.058.0588,0,.0103-.0071.0214-.0267.0214l-.0115-.0012-.0142.0126a.01632.01632,0,0,1,.0098.0146l-.0062.0298a.03161.03161,0,0,1,.0188.0277.02871.02871,0,0,1-.0128.0246c.011.0062.0488.0298.0488.0488,0,.0084-.0067.0174-.0214.0174h-.0555l.0004.0002c.015.0064.0578.0294.0578.0505,0,.009-.0068.0181-.022.0181l-.0122-.0016a.50113.50113,0,0,1-.058.0343c.0287.009.1009.034.1009.0815a.03175.03175,0,0,1-.0294.0354c-.0084,0-.0207-.0041-.0319-.0234a.15646.15646,0,0,0-.0419-.0515l.0013.0208a.09405.09405,0,0,1-.088.1075m-.0411-.0704a.25243.25243,0,0,0,.0358.0036c.0087,0,.0287,0,.031-.0427a.43179.43179,0,0,1-.0668.0391m.0724-.1832a.18406.18406,0,0,1,.0357.0515.17163.17163,0,0,0,.0417-.0617l.0015-.008h-.0602a.07921.07921,0,0,1-.0187.0182m-.1502-.0244q-.00225.03015-.0065.0576l.0041-.0018a.32571.32571,0,0,0,.0883-.0494c-.0256.0003-.0513.0013-.0745.0037l-.0114-.0101m.0021-.0351c.0161.0026.0766.0052.1201.0052h.1026l.0099-.0174a.47991.47991,0,0,1-.0825.0054c-.0646,0-.102-.0109-.102-.0661v-.0022l-.0477.0051.0005.0243-.0009.0457m.1088-.0803c0,.0108,0,.0174.0446.0174.056,0,.0613-.0086.0676-.0184l.0073-.0171-.0109.0048-.0105-.0033a.02569.02569,0,0,1-.0158.0066l-.0823.0089Zm-.1087-.0285.0481-.0051.0005-.0385h-.0491Zm.1095-.0113.0162-.0015a.07789.07789,0,0,1,.016-.0308h-.0318Zm.0573-.0323a.12137.12137,0,0,1,.0376.027l.0111-.027Zm.1804.3159c-.0271,0-.03-.0187-.03-.0267l.0013-.0292c.002-.0307.0027-.0812.0027-.107v-.165a.5101.5101,0,0,0-.0046-.0797l-.0021-.0125h.0127c.0008,0,.0793.0009.0793.0314,0,.0052-.0022.0171-.0211.0245-.0008.0222-.0008.0894-.0008.1358v.0701c0,.0273.0006.0612.002.0958l.0013.0325c0,.012-.0053.03-.0407.03" transform="translate(-1393.7784 -1030.41721)" style="fill: #43348a"/>
      <path d="M1405.5095,1034.79712a.02125.02125,0,0,1-.02-.02131v-.00419l.0035-.0058.0106-.0076a.39227.39227,0,0,0,.1708-.2041h-.0161a.50751.50751,0,0,1-.2336.2036h-.0014a.01976.01976,0,0,1-.0211-.0193v-.0045l.0038-.0065.0108-.00761a.47721.47721,0,0,0,.1655-.16569h-.0268a.4259.4259,0,0,1-.1759.1295.02135.02135,0,0,1-.0194-.0214v-.0078l.0102-.007a.464.464,0,0,0,.1707-.1722h-.0109c-.0086,0-.0593.0014-.093.0046a.05385.05385,0,0,1-.0236-.0377l-.0012-.013.013.00139c.0343.004.1014.00531.1207.00531h.2199c.0082-.013.0294-.0447.0433-.0447.013,0,.0687.0449.0687.0634a.02039.02039,0,0,1-.0214.0207h-.2384c-.0079.0132-.0165.0263-.0256.0388l.1712.00059c.0063-.00839.0193-.024.0302-.024.015,0,.0573.0333.0573.0528,0,.0076-.004.0175-.0218.0235a.60773.60773,0,0,1-.0241.14249.11005.11005,0,0,1-.0994.08111.02078.02078,0,0,1-.0198-.0146c-.006-.0145-.0106-.0173-.0543-.0328l-.0072-.0025-.0029-.01011a.36178.36178,0,0,1-.1123.06661m.1374-.0893a.25762.25762,0,0,0,.0558.0085c.0145,0,.0524,0,.0614-.1622h-.0148a.451.451,0,0,1-.1024.1537m-.3599-.0509c-.024,0-.0542-.0651-.0574-.07381l-.0048-.01339.0141-.001a.38874.38874,0,0,0,.088-.0236v-.1774a.574.574,0,0,0-.0672.0032.049.049,0,0,1-.0233-.037l-.0012-.01331.0132.00181c.0212.0028.0529.0052.0785.0058v-.0707c0-.0059-.0013-.0531-.0046-.0767l-.0016-.0121h.0122c.0402,0,.088.0052.088.03,0,.0102-.009.019-.0256.0252-.0005.0165-.0009.0538-.001.0975.0236-.0359.0244-.0359.0333-.0359.014,0,.0626.0458.0626.0635a.01876.01876,0,0,1-.02.0187h-.0759v.1519a.79944.79944,0,0,0,.0835-.03781l.0021-.00009a.02029.02029,0,0,1,.0203.0209v.00419l-.0041.00561a1.51925,1.51925,0,0,1-.1905.1154l.0001.0037c0,.0187-.0101.0254-.0187.0254m.2485-.2244a.0257.0257,0,0,1-.0287-.0261l.0016-.0256c.0017-.0269.0024-.0488.0024-.0719l.0007-.0527a.42236.42236,0,0,0-.0052-.0763l-.0029-.0161.0159.0038a.26223.26223,0,0,1,.0579.0218l.1282-.0014c.0154-.024.023-.024.0259-.024.0062,0,.058.0247.058.0521a.02811.02811,0,0,1-.021.0244l-.0003.0684c0,.0199.0009.0381.0015.0526l.0005.0111.0013.0258c.0001.0225-.021.0314-.0419.0314-.0207,0-.0301-.0125-.0301-.024l.0003-.0087h-.1221v.0073c0,.0222-.0264.0281-.042.0281m.1648-.0748.0004-.0481h-.1232v.0481Zm.0004-.1309h-.1232v.0434h.1232Z" transform="translate(-1393.7784 -1030.41721)" style="fill: #43348a"/>
      <path d="M1406.61567,1034.79115c-.0232,0-.028-.0134-.028-.0247l.0013-.0347v-.2151h-.0439a.41224.41224,0,0,1-.0947.2656l-.0031.0036-.0082.0013a.019.019,0,0,1-.02-.0174.6187.6187,0,0,0,.0613-.3306c0-.1009-.0018-.2278-.0071-.2536l-.0026-.0129h.013c.0139,0,.0827.0015.0827.0301,0,.0094-.0073.0175-.0199.0225l.0006.1197h.0345v-.1021a.33982.33982,0,0,0-.0044-.0688l-.0025-.0131.0133.0004c.0563.0019.0804.0109.0804.03,0,.0078-.0058.0172-.0215.0224-.0004.0248-.0005.0772-.0005.1127l.0123-.0182.0032-.004.0091-.002h.0045l.0072.0053h-.0001c.0002,0,.041.0338.041.0555,0,.0097-.0066.02-.0253.02h-.151l.0005.0406-.0004.0522h.0456c.0108-.0179.0166-.0233.026-.0233.0122,0,.06.0289.06.0494,0,.0105-.0075.0188-.0224.0245-.0009.0242-.0009.069-.0009.0743l.0013.1042.0012.0388a.49575.49575,0,0,0,.0727-.32,2.153,2.153,0,0,0-.0112-.2274l-.0024-.0156.0154.0036a.23652.23652,0,0,1,.0647.0295l.1369-.0017c.009-.0133.0334-.0475.0465-.0475.017,0,.0719.0477.0719.0668a.02007.02007,0,0,1-.022.0194h-.2343l.0017.1041h.1541c.0095-.019.0169-.0233.0239-.0233.0111,0,.062.0346.062.0561,0,.008-.0045.018-.025.0231a.59526.59526,0,0,1-.0772.1967.3205.3205,0,0,0,.1354.1028l.0068.0027.002.012a.02086.02086,0,0,1-.0155.0212.09074.09074,0,0,0-.043.0197l-.0031.0032-.0091.002c-.0167,0-.0734-.0504-.1124-.1106a.46835.46835,0,0,1-.1722.1266l-.0019.0007h-.0019a.02185.02185,0,0,1-.0194-.0207v-.0065l.0077-.0064a.41192.41192,0,0,0,.1568-.1501.715.715,0,0,1-.0573-.2097h-.0105v.0167a.46883.46883,0,0,1-.114.3597l-.0032.0036-.0088.002a.02156.02156,0,0,1-.0154-.007.04077.04077,0,0,1-.0412.0217m.2305-.3967a.51739.51739,0,0,0,.0505.1518.5882.5882,0,0,0,.0451-.1518Z" transform="translate(-1393.7784 -1030.41721)" style="fill: #43348a"/>
    </g>
    <g style="clip-path: url(#a9221931-c5fe-4501-951d-eb4c71cc1757)">
      <rect x="3.5556" width="5.6953" height="9.4348" style="fill: url(#ecae74fc-4402-4f0b-8f0f-0a15ec473d96)"/>
    </g>
    <g style="clip-path: url(#edb2b481-7891-4d8e-9362-dc5ff039139b)">
      <rect x="4.7798" y="3.31631" width="1.3118" height="3.2861" style="fill: url(#e7c1a566-ec1a-4953-861a-2cb8d85d1724)"/>
    </g>
    <g style="clip-path: url(#a047d815-fa1d-4ffc-94ca-1afcaaaa1a20)">
      <rect x="3.5676" y="2.21671" width="1.1196" height="4.3359" style="fill: url(#f708858b-db36-4760-bca7-8005ca8c51e3)"/>
    </g>
    <g style="clip-path: url(#be02d221-ae94-44bc-b5bd-689c66bbc847)">
      <rect x="1.8745" y="3.31631" width="1.5039" height="3.2861" style="fill: url(#b3437feb-972a-4a0b-b234-89327031b37d)"/>
    </g>
    <g style="clip-path: url(#e9da7c64-fb3d-45d0-9e7e-586d57dfe45e)">
      <rect y="2.02071" width="1.9193" height="4.49419" style="fill: url(#faa4a553-f472-46d0-aaf6-41845b4d6258)"/>
    </g>
    <g style="clip-path: url(#a3cde1a6-66f3-4e8f-a3f7-55af26ab5e37)">
      <rect x="10.8391" y="4.82731" width="1.1072" height="1.3424" style="fill: url(#eb9d16d6-147e-4e6c-932f-136517d6804c)"/>
    </g>
    <g style="clip-path: url(#ac86d645-acde-4da2-bb5a-1fe827234c60)">
      <rect x="12.0283" y="4.82911" width="1.4046" height="1.33579" style="fill: url(#a506e333-a00c-43b6-a2d7-8a4a00d3dc60)"/>
    </g>
    <g style="clip-path: url(#ae755500-c082-4cc5-a0dd-9383e04b80e3)">
      <rect x="13.5917" y="3.7079" width="1.7076" height="2.4655" style="fill: url(#e4555865-83d5-4134-8f7c-1513b16d4e33)"/>
    </g>
    <g style="clip-path: url(#a48195b2-cf29-4fa5-8375-3da4d51656ee)">
      <rect x="14.0955" y="5.28011" width="0.2374" height="0.4279" style="fill: url(#bc6823de-2692-4413-b41f-c0d259fba302)"/>
    </g>
    <g style="clip-path: url(#ef7e7aba-d1bb-460b-82b0-537c6188e03e)">
      <rect x="6.5785" y="3.78361" width="3.0509" height="2.4071" style="fill: url(#e8b6e2b3-bae9-4099-a02b-2c13740de87d)"/>
    </g>
    <g style="clip-path: url(#ee67b2f8-61c5-4c21-8dc3-a0eee395fe7b)">
      <rect x="9.5685" y="4.8637" width="1.1451" height="1.3036" style="fill: url(#b4ca25df-439b-4efa-864d-b05d8594493a)"/>
    </g>
    <g style="clip-path: url(#e6eaaeac-32d0-4646-9299-036cac551584)">
      <rect x="18.4286" y="4.87331" width="1.1453" height="1.30339" style="fill: url(#a5a47113-ce19-43aa-a03f-ea8d270c53ef)"/>
    </g>
    <g style="clip-path: url(#f4adaee7-a004-4c5b-9106-986e0f7f7a9b)">
      <rect x="22.4558" y="4.87331" width="1.1453" height="1.30339" style="fill: url(#aeafa4a1-b065-415f-b872-c5c574041a82)"/>
    </g>
    <g style="clip-path: url(#be5925b4-16fe-4d8a-bc97-8f1f91b1e20f)">
      <rect x="21.2028" y="4.83661" width="1.1617" height="1.3423" style="fill: url(#be4ce49c-9e03-4b01-aba6-4b7554cc0b7c)"/>
    </g>
    <g style="clip-path: url(#b2bdfcbd-b26b-4e64-8f8b-f8323f90c12d)">
      <rect x="15.2554" y="3.7902" width="3.1806" height="2.4071" style="fill: url(#add04639-33ab-498d-80d3-b59206054d75)"/>
    </g>
    <g style="clip-path: url(#f0b5b821-781d-4796-961c-b147ea4699f0)">
      <rect x="16.6186" y="4.57081" width="0.4546" height="0.84559" style="fill: url(#b63ead43-4eba-44cc-baf1-b7b6f1aff40b)"/>
    </g>
    <g style="clip-path: url(#bb94e100-9945-4992-86e1-26d9b2492e67)">
      <rect x="19.6085" y="3.70821" width="1.7077" height="2.46509" style="fill: url(#f8c0762c-e9ff-4412-8d00-9553fcdf1942)"/>
    </g>
    <g style="clip-path: url(#edac9c4b-a394-4183-a669-4d78779cfceb)">
      <rect x="20.1126" y="5.28041" width="0.2369" height="0.42759" style="fill: url(#ba2e2b8b-3391-431d-80a6-a75353831f68)"/>
    </g>
    <g>
      <path d="M1399.01936,1038.07576a.55734.55734,0,0,1-.1181.1011l-.0016-.0021.0093-.0159a1.11714,1.11714,0,0,0,.1901-.4224l-.0483.0021c-.0306.0011-.0951.0054-.1121.0085a.13682.13682,0,0,1-.0127-.0415c.0119.0022.0551.0043.0883.0054v-.0756a1.10065,1.10065,0,0,0-.0077-.1244.60379.60379,0,0,1,.1291.0138c.0118.0031.017.0106.017.0181,0,.0106-.0111.0212-.0289.0255-.0026.0202-.0026.0957-.0026.133a.1168.1168,0,0,1,.0298-.0383c.0067,0,.0831.0574.0831.0915,0,.0148-.0136.0223-.0305.0245a1.00389,1.00389,0,0,1-.0773.1564v.0116c.051.0096.1129.0298.1129.1032,0,.0351-.0212.0681-.0526.0681-.017,0-.0306-.0128-.0348-.0362-.0077-.0351.0025-.0797-.0255-.1191v.2585c0,.0234.0009.1011.0017.1426l.0009.0862c0,.0372-.0612.0425-.0764.0425-.0272,0-.0391-.0117-.0391-.033v-.0042c.0025-.0351.006-.2053.006-.2224Zm.4889.0649v.0713c0,.0373.0009.1011.0017.1448.0009.0084.0009.0819.0009.0925,0,.0032-.0017.0436-.079.0436-.028,0-.0382-.0106-.0382-.0319v-.0064c.0026-.0298.0059-.184.0059-.2426v-.0713h-.0517c0,.0213.0008.0394.0017.0554v.001c0,.0351-.0662.0384-.0764.0384-.0204,0-.034-.0085-.034-.0309v-.0032s.0051-.133.0051-.2223l.0009-.1702c0-.0416-.0043-.1309-.0086-.1777a.56071.56071,0,0,1,.1172.0627h.0458v-.0383a1.36084,1.36084,0,0,0-.0076-.1478.65279.65279,0,0,1,.1274.018c.0144.0043.0203.0128.0203.0213,0,.0106-.0118.0223-.0305.0245-.0009.0127-.0018.0596-.0018.1223h.0476c.0068-.0106.0365-.0574.0459-.0574l.0059.0021c.0254.0128.0917.0617.0917.0894,0,.0096-.0068.0191-.0264.0255-.0016.0181-.0016.05-.0016.083,0,.067.0016.1426.0016.1426,0,.034.0009.1234.0026.1468.0009.0212.0017.0414.0017.0574v.0022c0,.0297-.0433.0404-.0722.0404-.0314,0-.0424-.0128-.0424-.033v-.0021c.0008-.0171.0017-.0351.0017-.0501Zm-.1087-.4202h-.0534c0,.0128-.0009.0394-.0009.0713,0,.033.0009.0702.0009.1043h.0534Zm0,.2032h-.0526c0,.0447.0009.0788.0009.0788v.1106h.0517Zm.1648-.2032h-.0569v.1755h.0569Zm-.0009.3926c0-.0287.0009-.0798.0009-.1181v-.0713h-.057v.1894Z" transform="translate(-1393.7784 -1030.41721)" style="fill: #0069b3"/>
      <path d="M1400.44464,1037.60235v.2426c0,.0245.0009.0691.0017.1064,0,.017.0009.0415.0017.0649v.0021c0,.016-.0161.0426-.079.0426-.0279,0-.0364-.0139-.0364-.0319l.0008-.0075c.0025-.0212.0025-.0436.0034-.0638l.0008-.0373a1.41644,1.41644,0,0,1-.2011.1064c0,.0234-.0051.0341-.0119.0341-.0178,0-.0535-.1064-.062-.1596a.38.38,0,0,0,.0535.0053h.0237v-.3021c-.0195.001-.0381.001-.0518.0032a.08436.08436,0,0,1-.0152-.0426,1.75222,1.75222,0,0,0,.1825.0096h.0976a.553.553,0,0,1,.0527-.0841l.0042-.0021.006.0021c.0093.0075.084.0724.084.0958a.01451.01451,0,0,1-.0136.0159Zm-.1545.8511s-.1553.0022-.2003.0075a.0771.0771,0,0,1-.0153-.0436c.0356.0043.1553.0096.236.0096h.0772v-.1351h-.022s-.1427.001-.1877.0063a.07249.07249,0,0,1-.0152-.0436c.0356.0053.1426.0096.2223.0096h.0026v-.1287h-.056s-.1537.001-.1987.0074a.06683.06683,0,0,1-.0169-.0394l.0008-.0053c.0348.0043.1545.0085.2343.0085h.2742a.75119.75119,0,0,1,.0629-.0936l.0051-.0032c.0127,0,.1078.0883.1078.1107a.01366.01366,0,0,1-.0136.0149h-.2751v.1287h.0798c.034-.0575.0586-.0958.0679-.0958a.37421.37421,0,0,1,.0968.099l.0026.0095a.01389.01389,0,0,1-.0145.015h-.2326v.1351h.1545c.0077-.0139.0595-.1064.073-.1064l.0051.0021a.35273.35273,0,0,1,.0985.116.01463.01463,0,0,1-.0144.0159Zm.0475-.8511h-.0925v.0798h.0925Zm0,.1065h-.0925v.0787h.0925Zm0,.1052h-.0925v.0873c.0306-.0021.062-.0053.0925-.0096Zm.2717.1214v.001l.0008.0489c-.0008.0266-.022.0405-.0713.0405-.0297,0-.0382-.0107-.0382-.0319v-.0032s.0052-.0713.0052-.1777v-.1426a.91767.91767,0,0,0-.0103-.1255.60015.60015,0,0,1,.124.0649h.0671a.188.188,0,0,1,.0466-.0607c.0119,0,.0985.0575.0985.0852,0,.0096-.0076.0202-.028.0266-.0008.0095-.0008.0308-.0008.0553,0,.0468.0008.1053.0008.1053,0,.0351.0025.0968.0025.1075l.0018.0351c0,.0319-.0552.0404-.0773.0404-.0263,0-.0357-.0106-.0357-.0298v-.0021a.32078.32078,0,0,0,.0017-.0372Zm.0883-.299h-.0883c-.0009.016-.0009.0404-.0009.0649,0,.05.0009.1032.0009.1032v.1021h.0874c0-.0276.0009-.0776.0009-.0904Z" transform="translate(-1393.7784 -1030.41721)" style="fill: #0069b3"/>
      <path d="M1401.8165,1038.00352h-.4303c.0008.1149.0008.2095.0008.2095l.0008.1394c.0009.0255.0017.0702.0026.0894v.001c0,.0309-.0603.0394-.0807.0394-.0263,0-.0467-.0085-.0467-.0319v-.0021s.0069-.2117.0069-.2586v-.4851a1.8241,1.8241,0,0,0-.0094-.1894.63924.63924,0,0,1,.1333.066h.4109a.33613.33613,0,0,1,.0484-.0649l.0033-.0011.006.0011c.0297.0138.1053.067.1053.0947,0,.0127-.0094.0255-.0323.034-.0017.0202-.0026.0809-.0026.1532,0,.1458.0026.3373.0026.3373,0,.0373.0025.1149.0042.1606v.0085a.17464.17464,0,0,1-.1638.1734.024.024,0,0,1-.0246-.0191.2236.2236,0,0,0-.118-.1149c-.0094-.0053-.0145-.0096-.0145-.0127,0-.0022.0026-.0043.0085-.0043l.0085.0011a.78141.78141,0,0,0,.1028.0085.06914.06914,0,0,0,.078-.0766Zm-.2801-.3916h-.1511v.0735c0,.0755,0,.1861.0009.2862h.1502Zm.2801,0h-.1604v.3597h.1604Z" transform="translate(-1393.7784 -1030.41721)" style="fill: #0069b3"/>
      <path d="M1402.8056,1038.27476c0,.0277.0008.0724.0017.1171l.0008.0616c0,.033-.0476.0436-.0866.0436-.0348,0-.0467-.0106-.0467-.0361v-.0053c.0017-.0235.0034-.0607.0034-.0756.0008-.0308.0025-.0766.0025-.1053h-.1171c-.0433,0-.1502.0011-.1944.0075a.07151.07151,0,0,1-.0153-.0426l.0009-.0064a1.98523,1.98523,0,0,0,.2283.0117h.0976v-.1298h-.0942v.0107c-.0008.035-.0526.0425-.0764.0425-.0246,0-.0475-.0085-.0475-.0298v-.0031c.0042-.0522.0051-.1288.0051-.1724v-.1085a1.26068,1.26068,0,0,0-.0077-.1447.67075.67075,0,0,1,.1325.0659h.0857v-.117a1.25818,1.25818,0,0,0-.0085-.15h.0076a.63128.63128,0,0,1,.1342.016.02762.02762,0,0,1,.0221.0234c0,.0106-.0094.0212-.0315.0266-.0008.0117-.0016.0382-.0016.0681h.1154c.011-.0245.0611-.1043.0739-.1043.0101,0,.106.0883.106.117,0,.0085-.0042.0171-.0135.0171h-.2818v.1031h.0976c.0212-.0318.0408-.0595.0475-.0595l.0059.0021c.0281.0128.1002.0617.1002.0883,0,.0127-.0085.0245-.0289.0309v.1287c0,.0308.0017.0744.0026.0946.0009.0128.0017.0501.0017.0533v.001c0,.0064-.0017.0436-.0857.0436-.023,0-.0382-.0074-.0382-.0329v-.0107h-.0976v.1298h.168a.47563.47563,0,0,1,.0781-.1106c.0094,0,.1044.0926.1044.1223,0,.0085-.0042.0181-.0135.0181Zm.1001-.4713h-.3217c-.0009.0287-.0009.083-.0009.1245h.3226Zm0,.1532h-.3217v.0298l.0008.0915v.0096h.3192l.0009-.0224.0008-.0883Z" transform="translate(-1393.7784 -1030.41721)" style="fill: #0069b3"/>
      <path d="M1403.6842,1037.86087a.50078.50078,0,0,0-.0806.0054.079.079,0,0,1-.0103-.0223.59487.59487,0,0,1-.112.1287l-.0017-.0021.0059-.015a1.25381,1.25381,0,0,0,.1274-.4457c.0959.0244.1384.0425.1384.0649,0,.0085-.0068.0159-.0196.0159l-.0093-.001-.0009.0031c.096.0299.1486.0703.1486.1373,0,.0372-.0161.0766-.0518.0766-.0161,0-.0322-.0117-.0398-.0425a.42156.42156,0,0,0-.0629-.1564,1.08776,1.08776,0,0,1-.1129.2234.68661.68661,0,0,0,.0704.0043h.0111a.613.613,0,0,1,.0441-.082l.0051-.0021a.21117.21117,0,0,1,.0739.0947.01324.01324,0,0,1-.0119.0148Zm-.0789.1373a.612.612,0,0,0-.0747.0053.078.078,0,0,1-.0137-.0404c.0272.0042.1096.0085.1495.0085h.0823a.38482.38482,0,0,1,.0382-.0521l.0051-.0022.0034.0011c.0077.0043.079.0458.079.0766,0,.0106-.0077.0202-.0272.0277-.0009.0117-.0009.0266-.0009.0404,0,.0287.0009.0542.0009.0542,0,.0341.0017.0596.0025.1022v.0064a.11608.11608,0,0,1-.0968.1265.01564.01564,0,0,1-.016-.0138.15682.15682,0,0,0-.0307-.067c0,.0298.0017.0862.0026.1064l.0009.0617c0,.0426-.073.0426-.0756.0426-.0246,0-.0331-.0107-.0331-.0299v-.0074c.0017-.0213.0034-.0595.0034-.0723.0009-.0298.0009-.099.0009-.1234Zm.151-.0011h-.0501v.2426l.0102.0011h.0026c.0212,0,.0373-.0138.0373-.0437Zm.4814.2245c0,.0234-.0357.0383-.0696.0383-.0272,0-.045-.0106-.045-.0308h-.1282a.03588.03588,0,0,1-.0229.0244c.0059.0043.1078.0787.1078.1086a.01559.01559,0,0,1-.017.0159.03941.03941,0,0,1-.0195-.0064.67792.67792,0,0,1-.3099.1224c-.0059,0-.0093-.0011-.0093-.0043s.0042-.0074.0128-.0117a.48867.48867,0,0,0,.2223-.2202.17169.17169,0,0,1-.0322.0053c-.0213,0-.0399-.0096-.0399-.0319v-.0021c.0025-.0511.0051-.1607.0051-.1958v-.1713c0-.0415-.0034-.133-.0077-.1787a.61737.61737,0,0,1,.1045.0521c.005-.0436.0084-.0947.0093-.1309a1.32879,1.32879,0,0,0-.1545.0085.10418.10418,0,0,1-.0144-.0436c.0288.0054.1493.0086.2028.0086h.101a.57818.57818,0,0,1,.0586-.0841l.0052-.0021c.0109,0,.0976.0713.0976.0968a.01412.01412,0,0,1-.0145.0159h-.1519a.78037.78037,0,0,1-.1079.1331h.0968a.37734.37734,0,0,1,.0391-.0564l.0051-.0032c.0085,0,.0985.0574.0985.0872,0,.0096-.0068.0181-.0264.0245-.0008.0223-.0017.0564-.0017.0925,0,.0713.0017.149.0017.149,0,.0138,0,.1095.0043.1894Zm-.113-.4574h-.1307c-.0008.0223-.0008.0702-.0008.1212h.1315Zm0,.1478h-.1315v.1255h.1315Zm-.0008.2532c0-.0191.0008-.0606.0008-.101h-.1315c0,.0298.0008.0957.0008.1031v.0351h.1299Zm.0484.2809a.33015.33015,0,0,0-.101-.1596c-.0085-.0064-.0119-.0096-.0119-.0117l.006-.0021c.1502,0,.2173.051.2173.1266,0,.0383-.0195.083-.0603.083a.05558.05558,0,0,1-.0501-.0362" transform="translate(-1393.7784 -1030.41721)" style="fill: #0069b3"/>
      <path d="M1405.011,1038.08756v.0542c0,.0288-.0509.0362-.0653.0362a.0259.0259,0,0,1-.0289-.0277v-.0032c0-.0085.0017-.0265.0026-.0425a1.70544,1.70544,0,0,1-.186.2106l.0009.016c0,.016-.0042.0256-.011.0256-.0187,0-.0713-.099-.0917-.166a.52416.52416,0,0,0,.1018-.0277v-.3319a.409.409,0,0,0-.0746.0064.09219.09219,0,0,1-.0128-.0415.75939.75939,0,0,0,.0874.0095v-.1042c0-.0479-.0042-.1309-.0093-.1692a.66171.66171,0,0,1,.1273.016c.0128.0043.0188.0106.0188.0181,0,.0106-.0111.0213-.0298.0265-.0017.0203-.0025.1107-.0025.2139h.0025c.0068-.0255.0289-.0873.0382-.0873a.35138.35138,0,0,1,.0408.066.539.539,0,0,1,.095.0468h.0331a.32211.32211,0,0,1,.034-.0436l.0043-.0032c.0051,0,.0713.0458.0713.0671,0,.0085-.0059.017-.0229.0233-.0009.0107-.0017.0331-.0017.0564,0,.0309.0008.0607.0008.0607,0,.0308.0017.0681.0025.0904a.18272.18272,0,0,0,.0026.0287v.0022c0,.018-.028.0308-.0552.0308-.0213,0-.0314-.0074-.0314-.0202v-.0032l.0017-.034Zm-.0891-.1756c0-.0213-.0008-.051-.0025-.0819l-.0051.0011h-.0764c0,.1117.0008.2308.0008.2872.0297-.0138.0569-.0276.0815-.0404.0009-.0277.0017-.0532.0017-.0755Zm.0136.4448v.0031c0,.0192-.0043.033-.011.033-.0212,0-.0603-.1245-.0697-.1692h.0145a1.49841,1.49841,0,0,0,.3073-.0606l.0144-.0032.0042.0021a1.05767,1.05767,0,0,1-.2597.1948m.3217-.6384a2.54658,2.54658,0,0,0,.0179.3021,1.1008,1.1008,0,0,0,.0365-.2.54147.54147,0,0,1,.1061.0543.03137.03137,0,0,1,.0136.0234l-.0009.0043c-.0025.0074-.0119.0095-.0229.0095h-.006a1.47355,1.47355,0,0,1-.0942.2628c.006.016.0306.0851.0492.0851.0128,0,.0247-.0223.0671-.1564.0034-.0106.0068-.0159.0085-.0159l.0017.0074-.0009.0106c-.0067.0767-.0152.1735-.0152.2065a.26366.26366,0,0,0,.0085.0659.12567.12567,0,0,1,.0042.0319.058.058,0,0,1-.0577.066.07464.07464,0,0,1-.0594-.0319.60522.60522,0,0,1-.0765-.1521.522.522,0,0,1-.292.2l-.0051-.0022.0085-.0074a.65093.65093,0,0,0,.2581-.299,2.6401,2.6401,0,0,1-.0501-.4649h-.0985a1.49471,1.49471,0,0,0-.1553.0064.11739.11739,0,0,1-.0136-.0426,1.70907,1.70907,0,0,0,.1817.0096h.084v-.0138a1.45584,1.45584,0,0,0-.0127-.1745.67585.67585,0,0,1,.1205.018c.0128.0043.0196.0128.0196.0214,0,.0085-.0077.0159-.0238.0191-.0009.0458-.0009.0894-.0009.1298h.0459a.3792.3792,0,0,1,.0348-.0585.03948.03948,0,0,1-.0246-.0298c-.0077-.0277-.0094-.0681-.0399-.0894l-.0076-.0085.0067-.0021c.0391,0,.1172.0075.1172.0745a.06379.06379,0,0,1-.0178.0447c.0424.0372.0619.067.0619.0798a.014.014,0,0,1-.0144.0159Zm-.2037.3447.0008-.0553v-.1511h-.0449v.1596l.0008.0468Z" transform="translate(-1393.7784 -1030.41721)" style="fill: #0069b3"/>
      <path d="M1406.15023,1038.16193a.13587.13587,0,0,1-.0703.0386c-.0448.0041-.1686-.0514-.1695-.1183-.0002-.0174.0087-.041.014-.0415.0041-.0004.0104.0057.0262.0124a.1544.1544,0,0,0,.0805.014.28981.28981,0,0,0,.0923-.03c.0301-.0134.0849-.0453.149-.0793-.0134-.0577-.0277-.1167-.042-.1716a.68569.68569,0,0,0-.0939.069.12279.12279,0,0,1-.0704.0372c-.0531.0049-.1507-.0437-.1516-.1066-.0001-.008.0026-.0337.012-.0345.0052-.0005.0115.0042.0231.0112a.09432.09432,0,0,0,.0606.0132.58455.58455,0,0,0,.1948-.0836c-.0362-.1279-.059-.1981-.0944-.1948a.0247.0247,0,0,0-.0135.0039.05607.05607,0,0,1-.0177.0056c-.0073.0007-.0104-.0017-.0105-.0084a.10243.10243,0,0,1,.0905-.0806.30882.30882,0,0,1,.0762.005c.0481.009.0548.0391.0554.0806.0002.0147-.0006.0309-.0004.0469a.51894.51894,0,0,0,.0107.0901c.0258-.0144.0475-.0258.0631-.0339.029-.0148.0399-.0559.0753-.0592.1134-.0104.1264.0192.1269.0566a.06664.06664,0,0,1-.0522.0664,1.51261,1.51261,0,0,0-.194.0675c.0111.0538.0256.1141.041.1743.0331-.0165.0684-.0317.1015-.0455.0384-.0156.0563-.0708.0959-.0758l.0073-.0007c.1437-.0132.1444.0403.1448.0671a.06782.06782,0,0,1-.0563.0721,1.60413,1.60413,0,0,0-.2668.0835c.0309.111.0625.2152.0853.2747a.37663.37663,0,0,1,.0267.1221c.0011.0803-.0455.094-.0591.0952-.0312.0029-.0609-.0332-.0989-.1369a.6265.6265,0,0,1-.0122-.1234c-.0069-.0463-.0193-.112-.0349-.1843a1.00211,1.00211,0,0,0-.1445.1017" transform="translate(-1393.7784 -1030.41721)" style="fill: #0069b3"/>
      <path d="M1408.16136,1038.50959a.28753.28753,0,0,1-.0684.0277l-.0042-.0009c-.0001-.0054.0195-.0219.0566-.0495a1.46035,1.46035,0,0,0,.3948-.5385.57916.57916,0,0,0-.1844-.1357c-.0272-.0109-.0419-.0216-.0421-.0283,0-.0027.0041-.0044.0115-.0051a.90055.90055,0,0,1,.2605.0685.85114.85114,0,0,0,.0991-.2877c-.0004-.0294-.0132-.051-.0466-.0519-.0219-.0007-.0303-.0053-.0304-.012-.0003-.0187.0525-.049.0774-.0513a.1882.1882,0,0,1,.1678.1399.12041.12041,0,0,1-.0333.0741.259.259,0,0,0-.0305.0549c-.0293.0684-.0576.1326-.088.1944a.22907.22907,0,0,1,.1184.1899c.0008.0549-.0236.0987-.058.1018-.026.0024-.0576-.0188-.0876-.075a.6491.6491,0,0,0-.049-.0758,1.114,1.114,0,0,1-.4636.4605" transform="translate(-1393.7784 -1030.41721)" style="fill: #0069b3"/>
      <path d="M1410.04639,1038.208c.0005.0321-.0241.0638-.0855.0695a.25554.25554,0,0,1-.0522-.0006.42712.42712,0,0,0-.075.0016,1.27637,1.27637,0,0,0-.1695.0303l-.0094.0022a.07554.07554,0,0,1-.0397-.0097c-.0046.0446-.0196.0848-.0571.0882a.03566.03566,0,0,1-.0336-.0169.43107.43107,0,0,1-.047-.1498c-.0003-.024.0035-.0471.0042-.0699.0008-.0176.0006-.0363.0003-.055a2.43606,2.43606,0,0,0-.0283-.3081c-.0083-.0662-.0244-.0995-.0588-.0964l-.0083.0008-.0083.0008c-.0104.0009-.0146-.0027-.0147-.0094a.06807.06807,0,0,1,.0595-.0644.19133.19133,0,0,1,.1426.0565.1637.1637,0,0,0,.0251.0004c.0405-.0038.2067-.0458.2608-.0602.0249-.0063.0491-.0621.0803-.065.0198-.0018.1727.051.1735.1059.0005.0321-.0367.0637-.0483.1183-.0127.0601-.0468.2307-.0679.3572a.08089.08089,0,0,1,.0573.0737m-.4654-.3978c.005.1254.0194.2674.0296.3964.0157-.0001.0261-.0011.0303-.0015.0519-.0101.1569-.0332.2421-.0557.0096-.1295.0212-.4144.0212-.4158-.0003-.0187-.0098-.0246-.0223-.0234-.0218.002-.2409.065-.2731.0747l-.0083.0021a.0492.0492,0,0,1-.0198-.0036Z" transform="translate(-1393.7784 -1030.41721)" style="fill: #0069b3"/>
      <path d="M1411.87835,1037.87966c.0024.1686.011.3352.0196.5004l.0002.0147c.0017.1191-.0555.131-.0679.1322-.0531.0049-.0842-.1235-.0852-.1944-.0007-.0522.0136-.0682.017-.1208.0059-.0969.0101-.2513.0079-.4092-.0046-.3209-.0197-.3544-.053-.3527-.0261.0011-.0355.0006-.0356-.0061a.08632.08632,0,0,1,.069-.0599c.0364-.0034.1559.0365.1566.09.0005.0322-.0229.0771-.0259.1564-.0013.0511-.0027.1034-.003.1544.3251-.0112.3449.1356.3455.1784.0008.0602-.0348.1157-.0765.1196-.0239.0022-.0492-.0116-.0716-.0484a.48617.48617,0,0,0-.1981-.2215l.001.0669" transform="translate(-1393.7784 -1030.41721)" style="fill: #0069b3"/>
      <path d="M1410.68135,1038.04141a.48359.48359,0,0,0-.0583-.1433.11847.11847,0,0,1-.0193-.0358l.0052-.0058c.0458-.0042.1871.039.1887.1541.0008.0535-.0288.0977-.059.1005-.0219.002-.0451-.0173-.0573-.0697m-.0401.4831c-.0051.0005-.0072-.0007-.0073-.0033-.0001-.0067.0143-.0201.0453-.0431a1.04191,1.04191,0,0,0,.3399-.654c-.0003-.0268-.007-.0529-.0279-.0537-.0156-.0012-.024-.0045-.0241-.0125a.061.061,0,0,1,.0505-.0421c.051-.0047.1532.0702.154.1251a.12447.12447,0,0,1-.0263.0627.11927.11927,0,0,0-.0141.0281.8052.8052,0,0,1-.49.5928m.187-.5636a.40847.40847,0,0,0-.0471-.1618.07522.07522,0,0,1-.0119-.0297c0-.004.001-.0054.0051-.0058.0261-.0024.1706.0419.1723.1663a.102.102,0,0,1-.0683.1081c-.0219.002-.042-.0189-.0501-.0771" transform="translate(-1393.7784 -1030.41721)" style="fill: #0069b3"/>
      <path d="M1407.51571,1038.3111a.66749.66749,0,0,1,.0203.1133c.0006.0374-.0104.0719-.0437.075-.0375.0034-.0844-.0659-.0857-.1595-.0002-.0174.0006-.0349.0003-.0523a2.48139,2.48139,0,0,0-.0327-.2488c-.0826.0598-.0981.0693-.1147.0708-.025.0024-.1216-.0477-.1225-.1105a.05918.05918,0,0,1,.0222-.0503c.0031-.0002.0063.0035.0106.0098a.06552.06552,0,0,0,.0639.0262.58055.58055,0,0,0,.1224-.0434c-.0225-.1225-.0337-.171-.0617-.1684l-.0032.0003-.0218.0046c-.0073.0007-.0115-.0002-.0116-.0069a.07026.07026,0,0,1,.068-.0625c.0312-.0029.1188.0011.1196.0573a.15218.15218,0,0,1-.0047.0339.09121.09121,0,0,0-.004.0218c.0004.0241.0029.0506.0054.0812.0497-.022.0994-.0453.1358-.0581.029-.0106.0306-.0417.0577-.0441.0167-.0016.1509.0531.1518.1187a.08084.08084,0,0,1-.0398.0598c-.0083.0062-.0175.0124-.0258.0198a1.20655,1.20655,0,0,1-.1842.1669.13087.13087,0,0,1-.0331.0179l-.0042-.0023a.11276.11276,0,0,1,.0213-.0369.97519.97519,0,0,0,.1002-.2167c-.0001-.0054-.0034-.0185-.0138-.0175a.68131.68131,0,0,0-.1552.0839c.0161.1084.0418.2305.0629.317" transform="translate(-1393.7784 -1030.41721)" style="fill: #0069b3"/>
    </g>
    <g>
      <path d="M1399.48646,1039.42063c.0723,0,.1084.0049.1758.0049.0378,0,.1232-.0049.138-.0049.0312,0,.0411.0082.0411.0198,0,.0115-.0099.0214-.0444.0313-.0559.0148-.0607.0379-.0509.0659.0328.0807.2103.5005.3219.741a.00776.00776,0,0,0,.0132.0016c.0131-.0214.087-.1696.1412-.2914a.029.029,0,0,0-.0016-.0231c-.0624-.1498-.1379-.3194-.1577-.3623-.0476-.1004-.0575-.1136-.1216-.1317-.0295-.0083-.041-.0198-.041-.0297,0-.0132.023-.0181.0476-.0181.0214,0,.0821.0016.1348.0016.0755,0,.1395-.0049.156-.0049.0213,0,.041.0066.041.0182,0,.0147-.0131.0263-.0393.0312-.0707.0131-.074.0264-.051.0791.0148.0379.0575.135.1183.2701.0016.0049.0098.0033.0131,0,.0395-.0808.0706-.1499.1035-.2257.0411-.0905.0164-.1104-.0509-.1268-.0197-.0049-.0345-.0181-.0345-.0247,0-.0115.0099-.0198.0476-.0198.0296,0,.0608.0033.115.0033.0494,0,.1068-.0033.1347-.0033.0214,0,.0362.005.0362.0166,0,.0164-.0132.023-.0461.0312-.059.0149-.0821.0363-.1281.1186-.0164.0279-.0607.1053-.156.2931a.05456.05456,0,0,0,.0049.028c.0591.14.133.3013.1642.3589.0034.01.0099.0149.0182,0,.0706-.1514.2037-.4511.3006-.6718.0312-.0758.0229-.107-.0526-.1284-.0214-.0066-.0378-.0165-.0378-.0264,0-.0148.0148-.0198.0427-.0198.0378,0,.0805.0033.1117.0033.0493,0,.1051-.0049.1561-.0049.0279,0,.0427.0066.0427.0182,0,.0131-.0115.023-.0411.0296-.064.0131-.0952.0362-.1413.1251-.0197.0395-.1281.2421-.2365.4875-.1117.2553-.1215.2783-.1659.3886-.0066.0165-.023.0411-.0378.0411-.0082,0-.0213-.0065-.0296-.0345-.0246-.0906-.1166-.2816-.1757-.4199-.0033-.005-.0099-.0083-.0131-.0033-.051.107-.1479.3013-.1906.4264-.0066.0182-.0279.0379-.0378.0379-.0131,0-.0197-.0066-.0295-.0312-.0164-.0462-.0378-.1104-.1019-.2618-.0608-.1483-.2152-.5073-.2743-.6225-.0428-.0791-.0477-.1153-.1315-.1334-.0197-.0033-.0427-.0149-.0427-.0296,0-.0083.0164-.0182.0427-.0182" transform="translate(-1393.7784 -1030.41721)" style="fill: #005ca8"/>
      <path d="M1401.55833,1039.89653a.20777.20777,0,0,1,.0328.1367c0,.0643-.0065.2717-.0065.2898,0,.0758.0525.0824.0657.0824a.18159.18159,0,0,0,.0623-.0247c.005-.0034.0066,0,.0099.0049a.02566.02566,0,0,1,.005.0164.16706.16706,0,0,1-.1479.1022.11018.11018,0,0,1-.1051-.0824l-.0099-.0066a.63686.63686,0,0,1-.1478.0758.288.288,0,0,1-.0657.0099c-.0575,0-.1134-.0708-.1134-.1532a.14291.14291,0,0,1,.0312-.0839.16.16,0,0,1,.0658-.0412c.0246-.0099.156-.0461.1921-.0577.0378-.0115.0477-.0197.0477-.0296.0016-.0148.0032-.1152.0032-.1351a.12764.12764,0,0,0-.1281-.1103.1131.1131,0,0,0-.0673.0182c-.0098.0049-.0148.0345-.0116.0675a.03842.03842,0,0,1-.0098.018.59246.59246,0,0,1-.1067.0544.02426.02426,0,0,1-.0197-.0213c0-.0478.0459-.0939.1231-.145a.3511.3511,0,0,1,.1528-.0625.166.166,0,0,1,.1479.0773m-.1084.4908a.09384.09384,0,0,0,.0197-.0412c.0032-.0396.0032-.0955.0032-.1285a.01567.01567,0,0,0-.0131-.0132.49735.49735,0,0,0-.1692.0495.06368.06368,0,0,0-.0329.0625.10275.10275,0,0,0,.1036.0988.21036.21036,0,0,0,.0887-.0279" transform="translate(-1393.7784 -1030.41721)" style="fill: #005ca8"/>
      <path d="M1402.002,1039.86526a.60333.60333,0,0,0,.11-.0478.1097.1097,0,0,1,.0395-.018c.0081,0,.0164.018.0164.0246,0,.028-.0066.0675-.0066.0824,0,.0083.0082.0049.0099.0049a.453.453,0,0,1,.2201-.0906.19026.19026,0,0,1,.1495.0627.32433.32433,0,0,1,.0574.2008c0,.0313.0034.2767.0049.2998.0033.0246.0198.046.0608.0576.0313.0082.0411.0165.0411.0279,0,.0116-.023.0182-.0492.0182-.0378,0-.0756-.0033-.1216-.0033-.0411,0-.092.0033-.1134.0033-.0148,0-.0378-.0066-.0378-.0198,0-.0115.0181-.0214.0378-.028.0394-.0148.0477-.028.0509-.0823.0033-.0544.005-.2536.005-.3013a.16561.16561,0,0,0-.0493-.1219.22164.22164,0,0,0-.1051-.0313.20445.20445,0,0,0-.1463.0526.07521.07521,0,0,0-.0164.0396c0,.0215,0,.3754.0017.3952.0016.0231.0082.0363.0608.0511.0164.0049.0295.0148.0295.0247,0,.0115-.0181.0198-.0411.0198-.0196,0-.0657-.0017-.1001-.0017-.0608,0-.1084.005-.1364.005-.0246,0-.0428-.0067-.0428-.0215,0-.0115.0166-.0197.0346-.0247.0542-.0164.064-.0329.069-.0922.0049-.0494.0083-.1926.0083-.3607,0-.018-.0034-.0346-.0395-.0642-.0214-.0148-.0312-.023-.0312-.028,0-.0115.018-.0279.0296-.0329" transform="translate(-1393.7784 -1030.41721)" style="fill: #005ca8"/>
      <path d="M1403.45433,1039.82577c.0066.0016.0116-.0099.0131-.0181a2.87,2.87,0,0,0-.0015-.336c-.0017-.0082-.0017-.028-.0772-.0675-.0149-.0083-.0165-.0115-.0165-.0148a.05151.05151,0,0,1,.0279-.028,1.04262,1.04262,0,0,0,.1676-.0461.06361.06361,0,0,1,.0214-.005c.0048,0,.0147.0116.0131.0264a6.11407,6.11407,0,0,0-.0148.6504c0,.3179.0033.3442.0033.3755.0032.0609.0164.0675.0262.0675.0182,0,.0724-.0115.0888-.0131.0065,0,.0098.0081.0098.0099a.06846.06846,0,0,1-.028.0411,1.214,1.214,0,0,0-.1478.0329.22365.22365,0,0,1-.0591.0165c-.0066,0-.0181-.0132-.0181-.0214,0-.0148.0034-.0444.0034-.0675a.01054.01054,0,0,0-.0099-.0099.31937.31937,0,0,1-.2136.0823.28673.28673,0,0,1-.2053-.0905.35523.35523,0,0,1,.0953-.5287.4733.4733,0,0,1,.2168-.0625.59292.59292,0,0,1,.1051.0066m-.294.1054a.32706.32706,0,0,0-.069.2075.26882.26882,0,0,0,.2332.2832.197.197,0,0,0,.12-.0395.28593.28593,0,0,0,.0262-.1087c.0017-.1054,0-.1959-.0048-.2734a.13973.13973,0,0,0-.0363-.0625.22136.22136,0,0,0-.1412-.0643.18662.18662,0,0,0-.1281.0577" transform="translate(-1393.7784 -1030.41721)" style="fill: #005ca8"/>
      <path d="M1404.42862,1039.88342a.18467.18467,0,0,1,.0575.1383.03349.03349,0,0,1-.0312.028c-.018,0-.2989,0-.3745-.0017-.005,0-.0115.0083-.0131.0132a.20926.20926,0,0,0-.0083.0577.3368.3368,0,0,0,.0625.1876.23262.23262,0,0,0,.1839.0907.16561.16561,0,0,0,.1495-.0594c.0066-.0098.0148-.0197.0214-.0197.0098,0,.0131.0116.0131.0197a.0928.0928,0,0,1-.0114.0395.28.28,0,0,1-.2382.1236.29757.29757,0,0,1-.2957-.3277.35168.35168,0,0,1,.1971-.3228.34431.34431,0,0,1,.1248-.0296.23635.23635,0,0,1,.1626.0626m-.3449.1021c-.0033.0082.0033.018.0065.018.0427.0017.1299.0017.2119,0,.0395,0,.0559-.0081.0559-.041a.11061.11061,0,0,0-.1084-.0989.17793.17793,0,0,0-.1659.1219" transform="translate(-1393.7784 -1030.41721)" style="fill: #005ca8"/>
      <path d="M1404.8034,1039.87683a.76822.76822,0,0,0,.1216-.0527c.0197-.0132.0279-.0198.0328-.0198.00659,0,.01479.0149.01479.0198,0,.0297-.00329.0593-.00329.0906,0,.0066.0083.0081.0115.0066a.32349.32349,0,0,1,.1872-.1021c.0675,0,.0822.0411.0822.0559a.07806.07806,0,0,1-.0098.023.4116.4116,0,0,1-.0674.0758.04118.04118,0,0,1-.023-.0049.15465.15465,0,0,0-.0903-.0362.09618.09618,0,0,0-.0723.023.06233.06233,0,0,0-.0164.0362c0,.0329.0082.331.0098.3557.0033.0478.0132.0791.0427.0841l.07559.0197c.0263.0082.02951.0198.02951.0263,0,.0083-.0148.0149-.0393.0149-.0411,0-.09861-.0083-.1939-.0083-.0493,0-.069.0066-.1084.0066-.0181,0-.0345-.0066-.0345-.0197,0-.0099.0197-.0165.03279-.0215.06411-.0214.069-.0378.0707-.1367v-.3145a.05287.05287,0,0,0-.0181-.0494c-.03939-.0312-.05589-.0378-.05589-.0445a.0316.0316,0,0,1,.0214-.0279" transform="translate(-1393.7784 -1030.41721)" style="fill: #005ca8"/>
      <path d="M1405.50828,1040.49105c-.0263,0-.0427-.0066-.0427-.0182,0-.0098.0116-.018.0394-.0263.0378-.0099.0625-.0296.0658-.046a1.653,1.653,0,0,0,.0066-.1697c0-.0494.0015-.2372-.0018-.2569-.0015-.0115-.0196-.0247-.0673-.0592-.0099-.0066-.0131-.0116-.0131-.0182,0-.0116.0148-.0247.0329-.028.0608-.0132.138-.0493.1626-.0559.0066,0,.0147.0164.0147.018,0,.0182-.0098.2322-.0098.3261,0,.0922.0017.1614.0033.219.0017.0527.0378.0561.0788.0692.0263.0082.0362.0164.0362.0279,0,.0099-.0198.0166-.0378.0166-.0115,0-.0936-.005-.1281-.005-.0542,0-.1117.0066-.1397.0066m.2087-.9255a.088.088,0,0,1-.0789.0808.0949.0949,0,0,1-.0525-.0199.08642.08642,0,0,1-.0247-.0609.115.115,0,0,1,.0197-.0592.09693.09693,0,0,1,.0641-.0215c.0443,0,.0723.0511.0723.0807" transform="translate(-1393.7784 -1030.41721)" style="fill: #005ca8"/>
      <path d="M1406.1179,1039.86526a.60333.60333,0,0,0,.11-.0478.1097.1097,0,0,1,.0395-.018c.0081,0,.0164.018.0164.0246,0,.028-.0066.0675-.0066.0824,0,.0083.0082.0049.0099.0049a.453.453,0,0,1,.2201-.0906.19026.19026,0,0,1,.1495.0627.32433.32433,0,0,1,.0574.2008c0,.0313.0034.2767.0049.2998.0033.0246.0198.046.0608.0576.0313.0082.0411.0165.0411.0279,0,.0116-.023.0182-.0492.0182-.0378,0-.0756-.0033-.1216-.0033-.0411,0-.092.0033-.1134.0033-.0148,0-.0377-.0066-.0377-.0198,0-.0115.018-.0214.0377-.028.0394-.0148.0477-.028.0509-.0823.0033-.0544.005-.2536.005-.3013a.16561.16561,0,0,0-.0493-.1219.22164.22164,0,0,0-.1051-.0313.204.204,0,0,0-.1462.0526.07442.07442,0,0,0-.0165.0396c0,.0215,0,.3754.0017.3952.0016.0231.0082.0363.0608.0511.0164.0049.0296.0148.0296.0247,0,.0115-.0182.0198-.0412.0198-.0196,0-.0657-.0017-.1001-.0017-.0608,0-.1084.005-.1364.005-.0246,0-.0428-.0067-.0428-.0215,0-.0115.0166-.0197.0346-.0247.0542-.0164.064-.0329.069-.0922.0049-.0494.0083-.1926.0083-.3607,0-.018-.0034-.0346-.0395-.0642-.0214-.0148-.0312-.023-.0312-.028,0-.0115.018-.0279.0296-.0329" transform="translate(-1393.7784 -1030.41721)" style="fill: #005ca8"/>
      <path d="M1407.50127,1039.83238l.046.0098c.0361.0033.156.0049.1906.0132a.019.019,0,0,1,.0147.0181.0717.0717,0,0,1-.0296.0527c-.0098,0-.0689,0-.11-.0033a.01125.01125,0,0,0-.0098.0132.27328.27328,0,0,1,.0131.0823.242.242,0,0,1-.092.2075.28248.28248,0,0,1-.179.0626l-.0575-.0016a.03986.03986,0,0,0-.0247.0016c-.0164.0082-.0526.0428-.0526.056a.08757.08757,0,0,0,.0673.074c.0724.0034.2498.005.3023.0133a.21287.21287,0,0,1,.0788.0395.20655.20655,0,0,1,.0691.1449.30985.30985,0,0,1-.1545.2537.42579.42579,0,0,1-.2365.0708.33727.33727,0,0,1-.2053-.061.2012.2012,0,0,1-.0756-.1433.10868.10868,0,0,1,.0477-.1037c.041-.0346.092-.0708.1133-.0889.0032-.0033,0-.0083-.0049-.0116a.38867.38867,0,0,1-.0641-.0329.14908.14908,0,0,1-.0558-.1219l.0082-.0148c.0246-.0197.0953-.0593.1215-.0856.0033-.0033-.0017-.0099-.0066-.0149a.23588.23588,0,0,1-.1248-.2091.223.223,0,0,1,.1002-.1877.27468.27468,0,0,1,.1676-.0527.496.496,0,0,1,.1429.0198m.0263,1.0094a.1872.1872,0,0,0,.0903-.1531.125.125,0,0,0-.11-.1367.96867.96867,0,0,0-.1659-.0082.14332.14332,0,0,0-.1627.1515.1618.1618,0,0,0,.0575.1251.2574.2574,0,0,0,.161.051.2846.2846,0,0,0,.1298-.0296m-.2645-.9485a.20342.20342,0,0,0-.0428.1466c0,.0823.0559.2057.1627.2057a.12169.12169,0,0,0,.0542-.023.226.226,0,0,0,.0624-.1746.24722.24722,0,0,0-.0361-.1234.14251.14251,0,0,0-.1182-.0725.11982.11982,0,0,0-.0822.0412" transform="translate(-1393.7784 -1030.41721)" style="fill: #005ca8"/>
      <path d="M1408.33751,1040.45641a.21584.21584,0,0,1-.184.2026c-.0115,0-.0279-.0033-.0279-.0131,0-.0149.0098-.0215.0214-.0281.0344-.0197.0952-.0593.0952-.1202a.04681.04681,0,0,0-.0361-.0445c-.0181-.0048-.0691-.0247-.0691-.0708a.0773.0773,0,0,1,.0773-.0757.13421.13421,0,0,1,.1232.1498m-.0115-.4726a.09058.09058,0,0,1-.0904.0922.08841.08841,0,0,1-.0903-.0922.0939.0939,0,0,1,.092-.0938.08927.08927,0,0,1,.0887.0938" transform="translate(-1393.7784 -1030.41721)" style="fill: #005ca8"/>
      <path d="M1409.70109,1039.43884c.0131.0443.0411.1185.0723.2042.0854.2404.2086.5664.2365.6339.0542.135.0805.1482.1545.1663.0263.0083.0394.0165.0394.0281,0,.0114-.0116.0214-.0525.0214-.0542,0-.1348-.0083-.207-.0083-.0527,0-.0756.0033-.1167.0033s-.0509-.0115-.0509-.0197c0-.0083.0098-.0215.0394-.0264.0789-.0165.07229-.0494.0657-.084a2.47014,2.47014,0,0,0-.092-.2816c-.00161-.0066-.0082-.0164-.0558-.0164-.09041,0-.2349.0016-.2694.0065-.0066,0-.0149.0083-.0181.0132a1.31217,1.31217,0,0,0-.0854.2882c0,.0198.0066.0477.0805.0709.0279.0081.0443.018.0443.0296,0,.0164-.0246.0214-.046.0214-.0279,0-.0689-.005-.12971-.005s-.14619.0083-.17089.0083c-.0295,0-.0378-.0066-.0378-.0165s.0116-.0247.0361-.033c.0822-.028.1036-.0329.1512-.1399.0378-.084.225-.5813.2941-.7493a.33447.33447,0,0,0,.0147-.0428.21545.21545,0,0,1,.01149-.0281l.03951-.0658c.0114-.0132.018-.0214.0262-.0214.0066,0,.01319.0066.0263.0429m.0526.5335c-.0279-.084-.1134-.331-.1281-.3541-.005-.0098-.00831-.0115-.0132,0-.0295.0791-.115.3096-.1281.3607-.0016.0066.0016.0115.00819.0115.06561-.0016.202,0,.25621-.0049a.01428.01428,0,0,0,.005-.0132" transform="translate(-1393.7784 -1030.41721)" style="fill: #005ca8"/>
      <path d="M1410.84966,1039.83238l.0459.0098c.0362.0033.1561.0049.1906.0132a.01894.01894,0,0,1,.0148.0181.0717.0717,0,0,1-.0296.0527c-.0099,0-.0689,0-.11-.0033a.01125.01125,0,0,0-.0099.0132.27022.27022,0,0,1,.0132.0823.242.242,0,0,1-.092.2075.28255.28255,0,0,1-.1791.0626l-.0574-.0016a.03979.03979,0,0,0-.0247.0016c-.0165.0082-.0526.0428-.0526.056a.08757.08757,0,0,0,.0673.074c.0723.0034.2498.005.3023.0133a.21287.21287,0,0,1,.0788.0395.20681.20681,0,0,1,.069.1449.31.31,0,0,1-.1544.2537.42579.42579,0,0,1-.2365.0708.33727.33727,0,0,1-.2053-.061.2012.2012,0,0,1-.0756-.1433.10888.10888,0,0,1,.0476-.1037c.0411-.0346.092-.0708.1134-.0889.0032-.0033,0-.0083-.0049-.0116a.38867.38867,0,0,1-.0641-.0329.14914.14914,0,0,1-.0559-.1219l.0083-.0148c.0245-.0197.0952-.0593.1215-.0856.0033-.0033-.0017-.0099-.0066-.0149a.23588.23588,0,0,1-.1248-.2091.223.223,0,0,1,.1002-.1877.27468.27468,0,0,1,.1676-.0527.49657.49657,0,0,1,.1429.0198m.0263,1.0094a.1872.1872,0,0,0,.0903-.1531.125.125,0,0,0-.11-.1367.96867.96867,0,0,0-.1659-.0082.17308.17308,0,0,0-.0888.0164.17509.17509,0,0,0-.0739.1351.1618.1618,0,0,0,.0575.1251.2574.2574,0,0,0,.161.051.285.285,0,0,0,.1298-.0296m-.2645-.9485a.20342.20342,0,0,0-.0428.1466c0,.0823.0559.2057.1626.2057a.12125.12125,0,0,0,.0542-.023.22571.22571,0,0,0,.0625-.1746.24722.24722,0,0,0-.0361-.1234.14266.14266,0,0,0-.1183-.0725.1198.1198,0,0,0-.0821.0412" transform="translate(-1393.7784 -1030.41721)" style="fill: #005ca8"/>
      <path d="M1411.70726,1039.89653a.20773.20773,0,0,1,.0329.1367c0,.0643-.0066.2717-.0066.2898,0,.0758.0525.0824.0657.0824a.18267.18267,0,0,0,.0624-.0247c.005-.0034.0066,0,.0099.0049a.026.026,0,0,1,.0049.0164.16706.16706,0,0,1-.1479.1022.11027.11027,0,0,1-.1051-.0824l-.0099-.0066a.63488.63488,0,0,1-.1478.0758.28722.28722,0,0,1-.0657.0099c-.0575,0-.1133-.0708-.1133-.1532a.1428.1428,0,0,1,.0311-.0839.16.16,0,0,1,.0658-.0412c.0247-.0099.1561-.0461.1922-.0577.0377-.0115.0476-.0197.0476-.0296.0017-.0148.0033-.1152.0033-.1351a.12772.12772,0,0,0-.1281-.1103.11322.11322,0,0,0-.0674.0182c-.0098.0049-.0148.0345-.0115.0675a.03775.03775,0,0,1-.0099.018.59246.59246,0,0,1-.1067.0544.02437.02437,0,0,1-.0197-.0213c0-.0478.046-.0939.1232-.145a.35079.35079,0,0,1,.1527-.0625.16575.16575,0,0,1,.1479.0773m-.1084.4908a.09273.09273,0,0,0,.0197-.0412c.0033-.0396.0033-.0955.0033-.1285a.01567.01567,0,0,0-.0131-.0132.4967.4967,0,0,0-.1692.0495.06368.06368,0,0,0-.0329.0625.10267.10267,0,0,0,.1035.0988.20994.20994,0,0,0,.0887-.0279" transform="translate(-1393.7784 -1030.41721)" style="fill: #005ca8"/>
      <path d="M1412.50579,1039.83562c.0016,0,.0181.0082.0181.0132a.58439.58439,0,0,1,.0048.0626c0,.0148-.0312.018-.0426.018h-.179a.01646.01646,0,0,0-.0149.0116c-.0016.0329-.0032.275-.0032.3541a.10121.10121,0,0,0,.0279.0806.137.137,0,0,0,.1002.0313.17936.17936,0,0,0,.0804-.0247c.0148-.0082.0181-.0098.0247-.0098.0017,0,.0098.0032.0098.0181a.07014.07014,0,0,1-.0229.0412.24626.24626,0,0,1-.1758.0724.17335.17335,0,0,1-.1446-.0774.19564.19564,0,0,1-.0213-.1087c0-.0609.0066-.3079.0066-.3656,0-.0115-.0296-.0231-.0625-.0329-.0131-.0049-.023-.0132-.023-.0182a.02869.02869,0,0,1,.0099-.018,1.11213,1.11213,0,0,0,.1314-.1137c.0197-.023.0312-.0362.0378-.0362a.03836.03836,0,0,1,.023.0182v.0774a.01567.01567,0,0,0,.0131.0131c.0362,0,.1955-.0066.2021-.0066" transform="translate(-1393.7784 -1030.41721)" style="fill: #005ca8"/>
      <path d="M1413.26642,1039.88342a.18467.18467,0,0,1,.0575.1383.03349.03349,0,0,1-.0312.028c-.018,0-.2989,0-.3745-.0017-.005,0-.0115.0083-.0131.0132a.20926.20926,0,0,0-.0083.0577.3368.3368,0,0,0,.0625.1876.23262.23262,0,0,0,.1839.0907.16561.16561,0,0,0,.1495-.0594c.0066-.0098.0148-.0197.0214-.0197.0098,0,.0131.0116.0131.0197a.09424.09424,0,0,1-.0114.0395.28.28,0,0,1-.2382.1236.29757.29757,0,0,1-.2957-.3277.35168.35168,0,0,1,.1971-.3228.34387.34387,0,0,1,.1248-.0296.23635.23635,0,0,1,.1626.0626m-.3449.1021c-.0033.0082.0033.018.0065.018.0427.0017.1299.0017.2119,0,.0395,0,.0559-.0081.0559-.041a.11061.11061,0,0,0-.1084-.0989.17793.17793,0,0,0-.1659.1219" transform="translate(-1393.7784 -1030.41721)" style="fill: #005ca8"/>
      <path d="M1413.64119,1039.87683a.7616.7616,0,0,0,.1215-.0527c.0198-.0132.028-.0198.0329-.0198.00659,0,.01479.0149.01479.0198,0,.0297-.00329.0593-.00329.0906,0,.0066.0083.0081.01149.0066a.32354.32354,0,0,1,.18721-.1021c.0675,0,.08219.0411.08219.0559a.078.078,0,0,1-.00979.023.41531.41531,0,0,1-.0674.0758.041.041,0,0,1-.023-.0049.15492.15492,0,0,0-.0903-.0362.09618.09618,0,0,0-.0723.023.06233.06233,0,0,0-.0164.0362c0,.0329.0082.331.00979.3557.00331.0478.01321.0791.04271.0841l.07559.0197c.0263.0082.02951.0198.02951.0263,0,.0083-.0148.0149-.03941.0149-.041,0-.0985-.0083-.19379-.0083-.04931,0-.069.0066-.1084.0066-.0181,0-.0345-.0066-.0345-.0197,0-.0099.0197-.0165.03279-.0215.064-.0214.069-.0378.07061-.1367v-.3145a.053.053,0,0,0-.018-.0494c-.03949-.0312-.05589-.0378-.05589-.0445a.0316.0316,0,0,1,.0214-.0279" transform="translate(-1393.7784 -1030.41721)" style="fill: #005ca8"/>
      <path d="M1414.74857,1039.89653a.20773.20773,0,0,1,.0329.1367c0,.0643-.0066.2717-.0066.2898,0,.0758.0525.0824.0657.0824a.18267.18267,0,0,0,.0624-.0247c.005-.0034.0066,0,.0099.0049a.026.026,0,0,1,.0049.0164.16706.16706,0,0,1-.1479.1022.11027.11027,0,0,1-.1051-.0824l-.0099-.0066a.63488.63488,0,0,1-.1478.0758.288.288,0,0,1-.0657.0099c-.0575,0-.1133-.0708-.1133-.1532a.1428.1428,0,0,1,.0311-.0839.16.16,0,0,1,.0658-.0412c.0246-.0099.156-.0461.1922-.0577.0377-.0115.0476-.0197.0476-.0296.0017-.0148.0033-.1152.0033-.1351a.12772.12772,0,0,0-.1281-.1103.11322.11322,0,0,0-.0674.0182c-.0098.0049-.0148.0345-.0115.0675a.0386.0386,0,0,1-.0099.018.59246.59246,0,0,1-.1067.0544.02437.02437,0,0,1-.0197-.0213c0-.0478.046-.0939.1232-.145a.35079.35079,0,0,1,.1527-.0625.16575.16575,0,0,1,.1479.0773m-.1084.4908a.09273.09273,0,0,0,.0197-.0412c.0033-.0396.0033-.0955.0033-.1285a.01578.01578,0,0,0-.0131-.0132.4967.4967,0,0,0-.1692.0495.06368.06368,0,0,0-.0329.0625.10267.10267,0,0,0,.1035.0988.21036.21036,0,0,0,.0887-.0279" transform="translate(-1393.7784 -1030.41721)" style="fill: #005ca8"/>
      <path d="M1415.19388,1039.87844a1.21765,1.21765,0,0,0,.1249-.0675c.0065-.0049.00979-.0066.013-.0066a.03484.03484,0,0,1,.0199.0164c0,.0231-.0066.0692-.0066.0857,0,.005.0032.0164.00979.0099a.43794.43794,0,0,1,.22021-.0956.20923.20923,0,0,1,.128.033.18843.18843,0,0,1,.0526.0577c.00319.0066.00659.0099.01319.0066a.83631.83631,0,0,1,.1166-.0709.25238.25238,0,0,1,.10511-.0264.185.185,0,0,1,.1413.0561.25836.25836,0,0,1,.05419.158c.00661.0857.0033.2009.0033.3359.00161.0298.01151.0611.0707.0775.0213.0066.0312.0132.0312.0231,0,.0114-.0148.0181-.0461.0181-.0328,0-.0772-.005-.1182-.005-.04929,0-.07389.0033-.1117.0033-.0313,0-.04109-.0099-.04109-.0214,0-.0099.0181-.0165.03609-.0214.05261-.0165.05921-.0363.05921-.0939,0-.0395-.00331-.224-.00331-.2783a.19.19,0,0,0-.0263-.1103.13444.13444,0,0,0-.1249-.0577.1657.1657,0,0,0-.1264.051.12538.12538,0,0,0-.0164.0478c0,.0116-.0033.3228,0,.3591.0049.0526.0131.0692.06891.0823.0181.0049.03449.0148.03449.0231,0,.0114-.01309.0197-.03939.0197-.0361,0-.08541-.0033-.1232-.0033-.0345,0-.0821.0033-.1167.0033-.0377,0-.0426-.0132-.0426-.0197,0-.005.0065-.0165.0328-.0231.05589-.0131.06239-.0297.06239-.0889v-.3228a.12537.12537,0,0,0-.02139-.084.1515.1515,0,0,0-.1231-.0494.19834.19834,0,0,0-.13141.0511.05641.05641,0,0,0-.0181.0411c-.00319.0428-.00319.2503-.00319.3755,0,.0313.0065.0576.059.0741.0312.0099.0444.0165.0444.0297,0,.0114-.023.0164-.0444.0164-.0065,0-.0673-.0033-.1297-.0033-.0543,0-.0871.005-.1232.005-.0247,0-.0411-.0067-.0411-.0181,0-.0066.0099-.0182.0394-.0248.0526-.0131.0625-.0379.069-.1087.00329-.0477.0049-.2123.0049-.326a.0564.0564,0,0,0-.0114-.0445c-.0461-.0428-.0575-.051-.0575-.0592,0-.01.01469-.0198.0328-.0297" transform="translate(-1393.7784 -1030.41721)" style="fill: #005ca8"/>
      <polygon points="0.112 10.299 0.112 8.906 0.489 8.906 0.489 8.989 0.2 8.989 0.2 10.215 0.489 10.215 0.489 10.299 0.112 10.299" style="fill: #005ca8"/>
      <path d="M1396.0659,1039.51578h-1.2496a.65925.65925,0,0,0-.1662.0148.02543.02543,0,0,1-.0316-.0166.34951.34951,0,0,1-.0182-.0554l-.0017-.013c0-.0036.0017-.0055.0067-.0055l.0132.0019a.7427.7427,0,0,0,.1978.024h.5816a1.20132,1.20132,0,0,0,.0714-.301v-.0037l-.0016-.0147c0-.0093.0049-.0111.0298-.0074a2.16505,2.16505,0,0,1,.2377.0517c.0266.0073.0366.0203.0366.0332,0,.013-.015.0277-.0383.0332-.0515.013-.0548.0148-.0814.0444a1.18067,1.18067,0,0,1-.1861.1643h.2808a.03866.03866,0,0,0,.0349-.0166c.0266-.0425.0615-.0924.0964-.1422.01-.0148.0199-.0148.0349,0,.0581.0535.113.1071.1678.1662a.03987.03987,0,0,1,.0117.0258c0,.0092-.0083.0166-.0266.0166m-.6713.2493c-.0283.0166-.0416.0258-.0416.0498-.0016.096-.0016.3361-.0016.5244v.2308c0,.0886-.015.1569-.2061.1864l-.0116.0019c-.0117,0-.0233-.0055-.0266-.0369-.0083-.0924-.0083-.133-.1213-.1791a.02781.02781,0,0,1-.02-.024.01641.01641,0,0,1,.0183-.0148h.005c.0316.0037.0864.0092.118.0092h.0099c.0266-.0018.0333-.0092.0333-.0369.0016-.0646.0033-.1533.0033-.2419h-.226c0,.1718.0017.3471.0033.4635,0,.0517-.0448.0646-.1063.0701l-.0216.0019c-.0465,0-.0814-.0166-.0814-.0591v-.0055c.0066-.0942.0099-.3305.0099-.5614a4.71445,4.71445,0,0,0-.0166-.5335.09868.09868,0,0,1-.0066-.0314c0-.0074.0016-.0092.0066-.0092l.015.0036a1.711,1.711,0,0,1,.2243.1108h.1545a.04144.04144,0,0,0,.0349-.0147,1.03585,1.03585,0,0,1,.0715-.0794.02844.02844,0,0,1,.0183-.0092.05549.05549,0,0,1,.0216.0092,1.14371,1.14371,0,0,1,.1396.1052.052.052,0,0,1,.0199.0369.04024.04024,0,0,1-.0199.0333m-.2443-.3065a.09091.09091,0,0,1-.0881-.0683.35728.35728,0,0,0-.1379-.1957.0298.0298,0,0,1-.015-.0222c0-.0055.0067-.0111.0216-.0111h.005c.113.0056.2725.0185.3091.1551a.15647.15647,0,0,1,.005.0388.10013.10013,0,0,1-.0997.1034m.0033.5114h-.226v.2142h.226Zm-.0017-.24h-.2226v.1902h.2243c0-.0776,0-.1422-.0017-.1902m.5384.0166c-.0265.0074-.0415.0203-.0415.0443,0,.085-.0017.205-.0017.3287,0,.0812,0,.1643.0033.24v.0037c0,.048-.0365.0609-.1013.0664a.31282.31282,0,0,1-.0382.0037c-.0416,0-.0532-.0184-.0532-.0498v-.013c.0066-.1421.0133-.3323.0133-.4763a1.6044,1.6044,0,0,0-.0067-.1846c-.0033-.024-.0066-.037-.0066-.0443,0-.0093.0033-.0111.0133-.0111h.0149c.0266.0037.1729.0259.2011.0351a.0331.0331,0,0,1,.0266.0295.03012.03012,0,0,1-.0233.0277m.3257-.072c-.0266.0092-.0416.0203-.0416.0443-.0066.205-.0066.504,0,.8493v.0056c0,.1255-.0664.1643-.2093.1938a.15157.15157,0,0,1-.0249.0037c-.02,0-.0216-.0111-.0249-.0332-.0134-.0997-.025-.1366-.1812-.1957a.01778.01778,0,0,1,.005-.0351c.0482.0018.1413.0055.1894.0055.0316,0,.0383-.0148.0383-.048.0033-.1347.0066-.3711.0066-.5612,0-.1311-.0016-.2419-.0066-.2789a.45776.45776,0,0,1-.0067-.0461c0-.0074.0033-.0111.0117-.0111l.0166.0019c.0265.0036.1944.0314.2243.0406.0216.0074.0299.0185.0299.0295a.03856.03856,0,0,1-.0266.0351" transform="translate(-1393.7784 -1030.41721)" style="fill: #005ca8"/>
      <path d="M1397.891,1040.0309c-.0249.0111-.0332.013-.0365.061-.0017.0277-.0017.1218-.0017.2252v.2862a.14613.14613,0,0,1-.118.1643l-.0182.0037c-.02,0-.025-.0166-.0266-.0314-.005-.0646-.0117-.1052-.0632-.1385v.0038c0,.0424-.0016.059-.0681.0683a.117.117,0,0,1-.0233.0018c-.0299,0-.0398-.0129-.0398-.0425l.0016-.0203c.005-.0978.0083-.216.0083-.3323h-.0565v.1163c0,.0905,0,.1754.0017.24,0,.0425-.0033.0591-.0698.0684a.09469.09469,0,0,1-.0216.0018c-.0316,0-.0449-.0148-.0449-.0499v-.0129c.005-.1015.0083-.2345.0083-.3637h-.0648c0,.1421.0017.2972.005.3951v.0221c0,.0388-.0083.0573-.0897.0683a.15048.15048,0,0,1-.0283.0019c-.0249,0-.0415-.0092-.0415-.0499v-.0055c.0033-.0923.0066-.2308.0083-.3674a.902.902,0,0,1-.1828.3046.02222.02222,0,0,1-.0149.0093c-.005,0-.01-.0056-.01-.0166a.07109.07109,0,0,1,.005-.0241,2.02958,2.02958,0,0,0,.0748-.2547.07827.07827,0,0,1-.0682.0609c-.0282,0-.0515-.0203-.0515-.0646a.08944.08944,0,0,1,.0017-.0203,1.00673,1.00673,0,0,0,.0099-.1164.50136.50136,0,0,0-.0232-.1495l-.0017-.0074c0-.0074.0034-.011.0083-.011a.01905.01905,0,0,1,.015.0092.44065.44065,0,0,1,.113.2437l.0016.0203a.11647.11647,0,0,1-.0033.024,2.37473,2.37473,0,0,0,.0482-.4339c.0017-.0646.0033-.1274.0033-.1865a1.69678,1.69678,0,0,0-.0149-.2603c-.0033.0074-.0133.0111-.025.0148l-.0132.0018c-.0266.0019-.0266,0-.0366.0129a2.40268,2.40268,0,0,1-.3257.3674c.0316.0019.0615.0019.0931.0019.0498,0,.0997-.0019.1512-.0037a.26562.26562,0,0,0-.0465-.1256.0171.0171,0,0,1-.005-.0129.01133.01133,0,0,1,.0099-.011l.01.0036c.1097.0739.1762.1422.1778.2364v.0037c0,.0646-.0399.0978-.0781.0978a.06125.06125,0,0,1-.0598-.0554.24307.24307,0,0,1-.005-.059v-.0277c-.0166.0055-.0366.0129-.0515.0184v.1884c0,.2012.0017.395.0066.5483v.0166c0,.0517-.0099.0739-.0997.0794h-.0182c-.0615,0-.0748-.024-.0748-.0683v-.0166c.0033-.0647.005-.133.0066-.2013.0017-.0683.0034-.1403.0034-.2104a1.4441,1.4441,0,0,1-.1878.4043c-.0067.0111-.0133.0148-.0183.0148-.0066,0-.0099-.0056-.0099-.0148l.0016-.0129a2.91836,2.91836,0,0,0,.0648-.517l-.0017-.0221c0-.0037.0017-.0056.0067-.0056l.0133.0019c.0448.0129.0864.0258.1313.0424v-.1588c-.0316.0111-.0616.0204-.0898.0277-.0182.0055-.0216.0093-.0249.0333-.0033.0202-.0133.0332-.0233.0332-.0099,0-.0182-.0092-.0232-.0277-.0167-.0646-.0316-.1237-.0432-.1883l-.0017-.0185c0-.0074.0017-.0092.005-.0092a.23286.23286,0,0,0,.0232.0037c.0349.0037.0682.0055.1014.0074.0333-.0554.0681-.1145.0981-.1736a.06729.06729,0,0,1-.0433.0166.07929.07929,0,0,1-.0648-.0424c-.0349-.0665.0034-.1515-.093-.2567a.02378.02378,0,0,1-.0067-.0166.01064.01064,0,0,1,.0117-.0111l.0083.0019a.85169.85169,0,0,1,.0797.0369,1.36624,1.36624,0,0,0,.0532-.2566v-.0222c0-.0037,0-.0055.005-.0055l.0199.0036c.0632.0148.128.0314.1994.0517.0233.0056.0333.0185.0333.0296s-.0116.0222-.0349.0277c-.0266.0055-.0316.0037-.0399.0129a1.37567,1.37567,0,0,1-.1927.1828.181.181,0,0,1,.1013.1514.087.087,0,0,1-.0016.0203,2.01586,2.01586,0,0,0,.093-.2474c.005-.0185,0-.0314.0083-.0314l.0067.0018c.0581.0259.1163.0536.1877.0905l.0233.0148a.1985.1985,0,0,1-.005-.0369c0-.0129.005-.0185.0116-.0185a.05838.05838,0,0,1,.0216.0074c.0732.0332.1147.0517.1862.0886h.3339c.02,0,.0249-.0018.0333-.011.0133-.013.0465-.0555.0714-.0813a.02889.02889,0,0,1,.0183-.0092.05231.05231,0,0,1,.0233.0092c.0265.0166.0931.0702.1246.096a.056.056,0,0,1,.0249.0388c0,.0129-.0083.0277-.0315.0425-.0233.0147-.0316.0166-.0333.0683a.53893.53893,0,0,0,.005.0997.25773.25773,0,0,1,.0016.0332c0,.0609-.0249.0701-.1029.0775a.29446.29446,0,0,1-.0383.0019c-.0415,0-.0531-.0129-.0531-.0573h-.3889c-.0017.0352-.005.0702-.01.1071.0383.0185.0732.037.0732.037h.3772c.0149,0,.0199,0,.0282-.0093a.73079.73079,0,0,0,.0565-.0664c.0066-.0111.0183-.0111.0366,0,.0233.0166.0847.0683.1163.0978.0133.013.0249.024.0249.037,0,.011-.0083.0221-.0316.035m-.0315-.696h-.698a.65966.65966,0,0,0-.1661.0147.02543.02543,0,0,1-.0316-.0166.34906.34906,0,0,1-.0183-.0554l-.0016-.0129c0-.0037.0016-.0055.0066-.0055l.0133.0018a.74245.74245,0,0,0,.1977.024h.4055c.0166,0,.025,0,.0349-.0166.0199-.0332.0598-.0868.0814-.1218.005-.0075.01-.0111.015-.0111a.03441.03441,0,0,1,.0199.0111,1.727,1.727,0,0,1,.1562.1458.03986.03986,0,0,1,.0116.024c0,.0093-.0066.0185-.0265.0185m-.2476.1994h-.3855v.059c0,.0536-.0017.1016-.0033.1496h.3871c.0017-.0443.0033-.0794.0033-.1182,0-.0258-.0016-.0553-.0016-.0904m-.2908.4523h-.0582c-.0017.0517-.0033.1422-.0033.2437h.0631c0-.0886,0-.1735-.0016-.2437m.1828,0h-.0532c-.0017.0684-.0017.1551-.0033.2437h.0581c0-.0868,0-.1717-.0016-.2437m.1927,0h-.0698c-.0016.0702-.0016.1551-.0033.2437h.0748c0-.1255-.0017-.2437-.0017-.2437m-.0731.2936c0,.096,0,.192.0017.2714h.0199l.015.0018h.0083c.0216,0,.0216-.0148.0249-.0424.0033-.0351.005-.1311.005-.2308Z" transform="translate(-1393.7784 -1030.41721)" style="fill: #005ca8"/>
      <polygon points="4.472 10.299 4.472 10.215 4.762 10.215 4.762 8.989 4.472 8.989 4.472 8.906 4.85 8.906 4.85 10.299 4.472 10.299" style="fill: #005ca8"/>
    </g>
  </g>
</svg>
